<?xml version="1.0" encoding="UTF-8"?><svg xmlns="http://www.w3.org/2000/svg" xmlns:xlink="http://www.w3.org/1999/xlink" stroke-dasharray="none" shape-rendering="auto" font-family="'Dialog'" width="1000" text-rendering="auto" fill-opacity="1" contentScriptType="text/ecmascript" color-interpolation="auto" color-rendering="auto" preserveAspectRatio="xMidYMid meet" font-size="12px" viewBox="0 0 1000 864" fill="black" stroke="black" image-rendering="auto" stroke-miterlimit="10" zoomAndPan="magnify" version="1.0" stroke-linecap="square" stroke-linejoin="miter" contentStyleType="text/css" font-style="normal" height="864" stroke-width="1" stroke-dashoffset="0" font-weight="normal" stroke-opacity="1">
    <!--Generated by the Batik Graphics2D SVG Generator-->
    <defs id="genericDefs"/>
    <g>
        <defs id="defs1">
            <linearGradient x1="210" x2="210" y1="10" gradientUnits="userSpaceOnUse" y2="391" xlink:type="simple" xlink:actuate="onLoad" id="linearGradient1" xlink:show="other" spreadMethod="pad">
                <stop stop-opacity="1" stop-color="rgb(255,128,0)" offset="0%"/>
                <stop stop-opacity="1" stop-color="rgb(255,128,0)" offset="100%"/>
            </linearGradient>
            <linearGradient x1="409" x2="409" y1="76" gradientUnits="userSpaceOnUse" y2="96" xlink:type="simple" xlink:actuate="onLoad" id="linearGradient2" xlink:show="other" spreadMethod="pad">
                <stop stop-opacity="1" stop-color="rgb(155,199,204)" offset="0%"/>
                <stop stop-opacity="1" stop-color="rgb(155,199,204)" offset="100%"/>
            </linearGradient>
            <linearGradient x1="200" x2="200" y1="60" gradientUnits="userSpaceOnUse" y2="80" xlink:type="simple" xlink:actuate="onLoad" id="linearGradient3" xlink:show="other" spreadMethod="pad">
                <stop stop-opacity="1" stop-color="rgb(155,199,204)" offset="0%"/>
                <stop stop-opacity="1" stop-color="rgb(155,199,204)" offset="100%"/>
            </linearGradient>
            <linearGradient x1="200" x2="200" y1="100" gradientUnits="userSpaceOnUse" y2="120" xlink:type="simple" xlink:actuate="onLoad" id="linearGradient4" xlink:show="other" spreadMethod="pad">
                <stop stop-opacity="1" stop-color="rgb(155,199,204)" offset="0%"/>
                <stop stop-opacity="1" stop-color="rgb(155,199,204)" offset="100%"/>
            </linearGradient>
            <linearGradient x1="200" x2="200" y1="140" gradientUnits="userSpaceOnUse" y2="160" xlink:type="simple" xlink:actuate="onLoad" id="linearGradient5" xlink:show="other" spreadMethod="pad">
                <stop stop-opacity="1" stop-color="rgb(155,199,204)" offset="0%"/>
                <stop stop-opacity="1" stop-color="rgb(155,199,204)" offset="100%"/>
            </linearGradient>
            <linearGradient x1="200" x2="200" y1="180" gradientUnits="userSpaceOnUse" y2="200" xlink:type="simple" xlink:actuate="onLoad" id="linearGradient6" xlink:show="other" spreadMethod="pad">
                <stop stop-opacity="1" stop-color="rgb(155,199,204)" offset="0%"/>
                <stop stop-opacity="1" stop-color="rgb(155,199,204)" offset="100%"/>
            </linearGradient>
            <linearGradient x1="409" x2="409" y1="176" gradientUnits="userSpaceOnUse" y2="196" xlink:type="simple" xlink:actuate="onLoad" id="linearGradient7" xlink:show="other" spreadMethod="pad">
                <stop stop-opacity="1" stop-color="rgb(155,199,204)" offset="0%"/>
                <stop stop-opacity="1" stop-color="rgb(155,199,204)" offset="100%"/>
            </linearGradient>
            <linearGradient x1="730" x2="730" y1="10" gradientUnits="userSpaceOnUse" y2="221" xlink:type="simple" xlink:actuate="onLoad" id="linearGradient8" xlink:show="other" spreadMethod="pad">
                <stop stop-opacity="1" stop-color="rgb(155,199,204)" offset="0%"/>
                <stop stop-opacity="1" stop-color="rgb(155,199,204)" offset="100%"/>
            </linearGradient>
            <linearGradient x1="210" x2="210" y1="470" gradientUnits="userSpaceOnUse" y2="854" xlink:type="simple" xlink:actuate="onLoad" id="linearGradient9" xlink:show="other" spreadMethod="pad">
                <stop stop-opacity="1" stop-color="rgb(255,128,0)" offset="0%"/>
                <stop stop-opacity="1" stop-color="rgb(255,128,0)" offset="100%"/>
            </linearGradient>
            <linearGradient x1="497" x2="497" y1="600" gradientUnits="userSpaceOnUse" y2="620" xlink:type="simple" xlink:actuate="onLoad" id="linearGradient10" xlink:show="other" spreadMethod="pad">
                <stop stop-opacity="1" stop-color="rgb(155,199,204)" offset="0%"/>
                <stop stop-opacity="1" stop-color="rgb(155,199,204)" offset="100%"/>
            </linearGradient>
            <linearGradient x1="200" x2="200" y1="640" gradientUnits="userSpaceOnUse" y2="660" xlink:type="simple" xlink:actuate="onLoad" id="linearGradient11" xlink:show="other" spreadMethod="pad">
                <stop stop-opacity="1" stop-color="rgb(155,199,204)" offset="0%"/>
                <stop stop-opacity="1" stop-color="rgb(155,199,204)" offset="100%"/>
            </linearGradient>
            <linearGradient x1="200" x2="200" y1="560" gradientUnits="userSpaceOnUse" y2="580" xlink:type="simple" xlink:actuate="onLoad" id="linearGradient12" xlink:show="other" spreadMethod="pad">
                <stop stop-opacity="1" stop-color="rgb(155,199,204)" offset="0%"/>
                <stop stop-opacity="1" stop-color="rgb(155,199,204)" offset="100%"/>
            </linearGradient>
            <linearGradient x1="200" x2="200" y1="600" gradientUnits="userSpaceOnUse" y2="620" xlink:type="simple" xlink:actuate="onLoad" id="linearGradient13" xlink:show="other" spreadMethod="pad">
                <stop stop-opacity="1" stop-color="rgb(155,199,204)" offset="0%"/>
                <stop stop-opacity="1" stop-color="rgb(155,199,204)" offset="100%"/>
            </linearGradient>
            <linearGradient x1="200" x2="200" y1="520" gradientUnits="userSpaceOnUse" y2="540" xlink:type="simple" xlink:actuate="onLoad" id="linearGradient14" xlink:show="other" spreadMethod="pad">
                <stop stop-opacity="1" stop-color="rgb(155,199,204)" offset="0%"/>
                <stop stop-opacity="1" stop-color="rgb(155,199,204)" offset="100%"/>
            </linearGradient>
            <linearGradient x1="497" x2="497" y1="660" gradientUnits="userSpaceOnUse" y2="680" xlink:type="simple" xlink:actuate="onLoad" id="linearGradient15" xlink:show="other" spreadMethod="pad">
                <stop stop-opacity="1" stop-color="rgb(155,199,204)" offset="0%"/>
                <stop stop-opacity="1" stop-color="rgb(155,199,204)" offset="100%"/>
            </linearGradient>
            <linearGradient x1="730" x2="730" y1="330" gradientUnits="userSpaceOnUse" y2="703" xlink:type="simple" xlink:actuate="onLoad" id="linearGradient16" xlink:show="other" spreadMethod="pad">
                <stop stop-opacity="1" stop-color="rgb(155,199,204)" offset="0%"/>
                <stop stop-opacity="1" stop-color="rgb(155,199,204)" offset="100%"/>
            </linearGradient>
            <clipPath clipPathUnits="userSpaceOnUse" id="clipPath1">
                <path d="M210 10 L210 390 L418 390 L418 10 Z"/>
            </clipPath>
            <clipPath clipPathUnits="userSpaceOnUse" id="clipPath2">
                <path d="M293 12 L338 12 L338 31 L293 31 L293 12 Z"/>
            </clipPath>
            <clipPath clipPathUnits="userSpaceOnUse" id="clipPath3">
                <path d="M297 30 L333 30 L333 49 L297 49 L297 30 Z"/>
            </clipPath>
            <clipPath clipPathUnits="userSpaceOnUse" id="clipPath4">
                <path d="M295 50 L336 50 L336 68 L295 68 L295 50 Z"/>
            </clipPath>
            <clipPath clipPathUnits="userSpaceOnUse" id="clipPath5">
                <path d="M215 67 L398 67 L398 87 L215 87 L215 67 Z"/>
            </clipPath>
            <clipPath clipPathUnits="userSpaceOnUse" id="clipPath6">
                <path d="M215 85 L379 85 L379 105 L215 105 L215 85 Z"/>
            </clipPath>
            <clipPath clipPathUnits="userSpaceOnUse" id="clipPath7">
                <path d="M215 103 L384 103 L384 123 L215 123 L215 103 Z"/>
            </clipPath>
            <clipPath clipPathUnits="userSpaceOnUse" id="clipPath8">
                <path d="M215 121 L391 121 L391 141 L215 141 L215 121 Z"/>
            </clipPath>
            <clipPath clipPathUnits="userSpaceOnUse" id="clipPath9">
                <path d="M215 139 L359 139 L359 159 L215 159 L215 139 Z"/>
            </clipPath>
            <clipPath clipPathUnits="userSpaceOnUse" id="clipPath10">
                <path d="M210 48 L420 48 L420 224 L210 224 L210 48 Z"/>
            </clipPath>
            <clipPath clipPathUnits="userSpaceOnUse" id="clipPath11">
                <path d="M209 9 L420 9 L420 392 L209 392 L209 9 Z"/>
            </clipPath>
            <clipPath clipPathUnits="userSpaceOnUse" id="clipPath12">
                <path d="M287 235 L343 235 L343 253 L287 253 L287 235 Z"/>
            </clipPath>
            <clipPath clipPathUnits="userSpaceOnUse" id="clipPath13">
                <path d="M215 252 L320 252 L320 271 L215 271 L215 252 Z"/>
            </clipPath>
            <clipPath clipPathUnits="userSpaceOnUse" id="clipPath14">
                <path d="M215 269 L389 269 L389 288 L215 288 L215 269 Z"/>
            </clipPath>
            <clipPath clipPathUnits="userSpaceOnUse" id="clipPath15">
                <path d="M215 286 L414 286 L414 305 L215 305 L215 286 Z"/>
            </clipPath>
            <clipPath clipPathUnits="userSpaceOnUse" id="clipPath16">
                <path d="M215 303 L369 303 L369 322 L215 322 L215 303 Z"/>
            </clipPath>
            <clipPath clipPathUnits="userSpaceOnUse" id="clipPath17">
                <path d="M215 320 L411 320 L411 339 L215 339 L215 320 Z"/>
            </clipPath>
            <clipPath clipPathUnits="userSpaceOnUse" id="clipPath18">
                <path d="M215 337 L355 337 L355 356 L215 356 L215 337 Z"/>
            </clipPath>
            <clipPath clipPathUnits="userSpaceOnUse" id="clipPath19">
                <path d="M210 233 L420 233 L420 363 L210 363 L210 233 Z"/>
            </clipPath>
            <clipPath clipPathUnits="userSpaceOnUse" id="clipPath20">
                <path d="M285 364 L345 364 L345 382 L285 382 L285 364 Z"/>
            </clipPath>
            <clipPath clipPathUnits="userSpaceOnUse" id="clipPath21">
                <path d="M210 362 L420 362 L420 392 L210 392 L210 362 Z"/>
            </clipPath>
            <clipPath clipPathUnits="userSpaceOnUse" id="clipPath22">
                <path d="M409 76 L409 95 L428 95 L428 76 Z"/>
            </clipPath>
            <clipPath clipPathUnits="userSpaceOnUse" id="clipPath23">
                <path d="M408 75 L430 75 L430 97 L408 97 L408 75 Z"/>
            </clipPath>
            <clipPath clipPathUnits="userSpaceOnUse" id="clipPath24">
                <path d="M433 78 L470 78 L470 97 L433 97 L433 78 Z"/>
            </clipPath>
            <clipPath clipPathUnits="userSpaceOnUse" id="clipPath25">
                <path d="M200 60 L200 79 L219 79 L219 60 Z"/>
            </clipPath>
            <clipPath clipPathUnits="userSpaceOnUse" id="clipPath26">
                <path d="M199 59 L221 59 L221 81 L199 81 L199 59 Z"/>
            </clipPath>
            <clipPath clipPathUnits="userSpaceOnUse" id="clipPath27">
                <path d="M49 69 L155 69 L155 88 L49 88 L49 69 Z"/>
            </clipPath>
            <clipPath clipPathUnits="userSpaceOnUse" id="clipPath28">
                <path d="M200 100 L200 119 L219 119 L219 100 Z"/>
            </clipPath>
            <clipPath clipPathUnits="userSpaceOnUse" id="clipPath29">
                <path d="M199 99 L221 99 L221 121 L199 121 L199 99 Z"/>
            </clipPath>
            <clipPath clipPathUnits="userSpaceOnUse" id="clipPath30">
                <path d="M49 109 L180 109 L180 128 L49 128 L49 109 Z"/>
            </clipPath>
            <clipPath clipPathUnits="userSpaceOnUse" id="clipPath31">
                <path d="M200 140 L200 159 L219 159 L219 140 Z"/>
            </clipPath>
            <clipPath clipPathUnits="userSpaceOnUse" id="clipPath32">
                <path d="M199 139 L221 139 L221 161 L199 161 L199 139 Z"/>
            </clipPath>
            <clipPath clipPathUnits="userSpaceOnUse" id="clipPath33">
                <path d="M49 149 L135 149 L135 168 L49 168 L49 149 Z"/>
            </clipPath>
            <clipPath clipPathUnits="userSpaceOnUse" id="clipPath34">
                <path d="M200 180 L200 199 L219 199 L219 180 Z"/>
            </clipPath>
            <clipPath clipPathUnits="userSpaceOnUse" id="clipPath35">
                <path d="M199 179 L221 179 L221 201 L199 201 L199 179 Z"/>
            </clipPath>
            <clipPath clipPathUnits="userSpaceOnUse" id="clipPath36">
                <path d="M49 189 L205 189 L205 208 L49 208 L49 189 Z"/>
            </clipPath>
            <clipPath clipPathUnits="userSpaceOnUse" id="clipPath37">
                <path d="M409 176 L409 195 L428 195 L428 176 Z"/>
            </clipPath>
            <clipPath clipPathUnits="userSpaceOnUse" id="clipPath38">
                <path d="M408 175 L430 175 L430 197 L408 197 L408 175 Z"/>
            </clipPath>
            <clipPath clipPathUnits="userSpaceOnUse" id="clipPath39">
                <path d="M433 178 L505 178 L505 197 L433 197 L433 178 Z"/>
            </clipPath>
            <clipPath clipPathUnits="userSpaceOnUse" id="clipPath40">
                <path d="M730 10 L730 220 L912 220 L912 10 Z"/>
            </clipPath>
            <clipPath clipPathUnits="userSpaceOnUse" id="clipPath41">
                <path d="M806 12 L838 12 L838 31 L806 31 L806 12 Z"/>
            </clipPath>
            <clipPath clipPathUnits="userSpaceOnUse" id="clipPath42">
                <path d="M805 30 L839 30 L839 49 L805 49 L805 30 Z"/>
            </clipPath>
            <clipPath clipPathUnits="userSpaceOnUse" id="clipPath43">
                <path d="M807 50 L837 50 L837 68 L807 68 L807 50 Z"/>
            </clipPath>
            <clipPath clipPathUnits="userSpaceOnUse" id="clipPath44">
                <path d="M735 67 L905 67 L905 87 L735 87 L735 67 Z"/>
            </clipPath>
            <clipPath clipPathUnits="userSpaceOnUse" id="clipPath45">
                <path d="M735 85 L879 85 L879 105 L735 105 L735 85 Z"/>
            </clipPath>
            <clipPath clipPathUnits="userSpaceOnUse" id="clipPath46">
                <path d="M730 48 L914 48 L914 134 L730 134 L730 48 Z"/>
            </clipPath>
            <clipPath clipPathUnits="userSpaceOnUse" id="clipPath47">
                <path d="M729 9 L914 9 L914 222 L729 222 L729 9 Z"/>
            </clipPath>
            <clipPath clipPathUnits="userSpaceOnUse" id="clipPath48">
                <path d="M792 145 L852 145 L852 163 L792 163 L792 145 Z"/>
            </clipPath>
            <clipPath clipPathUnits="userSpaceOnUse" id="clipPath49">
                <path d="M735 162 L797 162 L797 181 L735 181 L735 162 Z"/>
            </clipPath>
            <clipPath clipPathUnits="userSpaceOnUse" id="clipPath50">
                <path d="M735 179 L798 179 L798 198 L735 198 L735 179 Z"/>
            </clipPath>
            <clipPath clipPathUnits="userSpaceOnUse" id="clipPath51">
                <path d="M730 143 L914 143 L914 222 L730 222 L730 143 Z"/>
            </clipPath>
            <clipPath clipPathUnits="userSpaceOnUse" id="clipPath52">
                <path d="M210 470 L210 853 L506 853 L506 470 Z"/>
            </clipPath>
            <clipPath clipPathUnits="userSpaceOnUse" id="clipPath53">
                <path d="M332 472 L386 472 L386 491 L332 491 L332 472 Z"/>
            </clipPath>
            <clipPath clipPathUnits="userSpaceOnUse" id="clipPath54">
                <path d="M286 490 L433 490 L433 509 L286 509 L286 490 Z"/>
            </clipPath>
            <clipPath clipPathUnits="userSpaceOnUse" id="clipPath55">
                <path d="M335 510 L384 510 L384 528 L335 528 L335 510 Z"/>
            </clipPath>
            <clipPath clipPathUnits="userSpaceOnUse" id="clipPath56">
                <path d="M215 527 L374 527 L374 547 L215 547 L215 527 Z"/>
            </clipPath>
            <clipPath clipPathUnits="userSpaceOnUse" id="clipPath57">
                <path d="M215 545 L499 545 L499 565 L215 565 L215 545 Z"/>
            </clipPath>
            <clipPath clipPathUnits="userSpaceOnUse" id="clipPath58">
                <path d="M215 563 L363 563 L363 583 L215 583 L215 563 Z"/>
            </clipPath>
            <clipPath clipPathUnits="userSpaceOnUse" id="clipPath59">
                <path d="M215 581 L379 581 L379 601 L215 601 L215 581 Z"/>
            </clipPath>
            <clipPath clipPathUnits="userSpaceOnUse" id="clipPath60">
                <path d="M215 599 L384 599 L384 619 L215 619 L215 599 Z"/>
            </clipPath>
            <clipPath clipPathUnits="userSpaceOnUse" id="clipPath61">
                <path d="M215 617 L391 617 L391 637 L215 637 L215 617 Z"/>
            </clipPath>
            <clipPath clipPathUnits="userSpaceOnUse" id="clipPath62">
                <path d="M215 635 L359 635 L359 655 L215 655 L215 635 Z"/>
            </clipPath>
            <clipPath clipPathUnits="userSpaceOnUse" id="clipPath63">
                <path d="M210 508 L508 508 L508 684 L210 684 L210 508 Z"/>
            </clipPath>
            <clipPath clipPathUnits="userSpaceOnUse" id="clipPath64">
                <path d="M209 469 L508 469 L508 855 L209 855 L209 469 Z"/>
            </clipPath>
            <clipPath clipPathUnits="userSpaceOnUse" id="clipPath65">
                <path d="M331 695 L387 695 L387 713 L331 713 L331 695 Z"/>
            </clipPath>
            <clipPath clipPathUnits="userSpaceOnUse" id="clipPath66">
                <path d="M215 712 L366 712 L366 731 L215 731 L215 712 Z"/>
            </clipPath>
            <clipPath clipPathUnits="userSpaceOnUse" id="clipPath67">
                <path d="M215 729 L485 729 L485 748 L215 748 L215 729 Z"/>
            </clipPath>
            <clipPath clipPathUnits="userSpaceOnUse" id="clipPath68">
                <path d="M215 746 L460 746 L460 765 L215 765 L215 746 Z"/>
            </clipPath>
            <clipPath clipPathUnits="userSpaceOnUse" id="clipPath69">
                <path d="M215 763 L415 763 L415 782 L215 782 L215 763 Z"/>
            </clipPath>
            <clipPath clipPathUnits="userSpaceOnUse" id="clipPath70">
                <path d="M215 780 L435 780 L435 799 L215 799 L215 780 Z"/>
            </clipPath>
            <clipPath clipPathUnits="userSpaceOnUse" id="clipPath71">
                <path d="M215 797 L404 797 L404 816 L215 816 L215 797 Z"/>
            </clipPath>
            <clipPath clipPathUnits="userSpaceOnUse" id="clipPath72">
                <path d="M210 693 L508 693 L508 826 L210 826 L210 693 Z"/>
            </clipPath>
            <clipPath clipPathUnits="userSpaceOnUse" id="clipPath73">
                <path d="M329 827 L389 827 L389 845 L329 845 L329 827 Z"/>
            </clipPath>
            <clipPath clipPathUnits="userSpaceOnUse" id="clipPath74">
                <path d="M210 825 L508 825 L508 855 L210 855 L210 825 Z"/>
            </clipPath>
            <clipPath clipPathUnits="userSpaceOnUse" id="clipPath75">
                <path d="M497 600 L497 619 L516 619 L516 600 Z"/>
            </clipPath>
            <clipPath clipPathUnits="userSpaceOnUse" id="clipPath76">
                <path d="M496 599 L518 599 L518 621 L496 621 L496 599 Z"/>
            </clipPath>
            <clipPath clipPathUnits="userSpaceOnUse" id="clipPath77">
                <path d="M521 602 L593 602 L593 621 L521 621 L521 602 Z"/>
            </clipPath>
            <clipPath clipPathUnits="userSpaceOnUse" id="clipPath78">
                <path d="M200 640 L200 659 L219 659 L219 640 Z"/>
            </clipPath>
            <clipPath clipPathUnits="userSpaceOnUse" id="clipPath79">
                <path d="M199 639 L221 639 L221 661 L199 661 L199 639 Z"/>
            </clipPath>
            <clipPath clipPathUnits="userSpaceOnUse" id="clipPath80">
                <path d="M9 649 L200 649 L200 668 L9 668 L9 649 Z"/>
            </clipPath>
            <clipPath clipPathUnits="userSpaceOnUse" id="clipPath81">
                <path d="M200 560 L200 579 L219 579 L219 560 Z"/>
            </clipPath>
            <clipPath clipPathUnits="userSpaceOnUse" id="clipPath82">
                <path d="M199 559 L221 559 L221 581 L199 581 L199 559 Z"/>
            </clipPath>
            <clipPath clipPathUnits="userSpaceOnUse" id="clipPath83">
                <path d="M9 569 L175 569 L175 588 L9 588 L9 569 Z"/>
            </clipPath>
            <clipPath clipPathUnits="userSpaceOnUse" id="clipPath84">
                <path d="M200 600 L200 619 L219 619 L219 600 Z"/>
            </clipPath>
            <clipPath clipPathUnits="userSpaceOnUse" id="clipPath85">
                <path d="M199 599 L221 599 L221 621 L199 621 L199 599 Z"/>
            </clipPath>
            <clipPath clipPathUnits="userSpaceOnUse" id="clipPath86">
                <path d="M9 609 L130 609 L130 628 L9 628 L9 609 Z"/>
            </clipPath>
            <clipPath clipPathUnits="userSpaceOnUse" id="clipPath87">
                <path d="M200 520 L200 539 L219 539 L219 520 Z"/>
            </clipPath>
            <clipPath clipPathUnits="userSpaceOnUse" id="clipPath88">
                <path d="M199 519 L221 519 L221 541 L199 541 L199 519 Z"/>
            </clipPath>
            <clipPath clipPathUnits="userSpaceOnUse" id="clipPath89">
                <path d="M9 529 L150 529 L150 548 L9 548 L9 529 Z"/>
            </clipPath>
            <clipPath clipPathUnits="userSpaceOnUse" id="clipPath90">
                <path d="M497 660 L497 679 L516 679 L516 660 Z"/>
            </clipPath>
            <clipPath clipPathUnits="userSpaceOnUse" id="clipPath91">
                <path d="M496 659 L518 659 L518 681 L496 681 L496 659 Z"/>
            </clipPath>
            <clipPath clipPathUnits="userSpaceOnUse" id="clipPath92">
                <path d="M521 662 L631 662 L631 681 L521 681 L521 662 Z"/>
            </clipPath>
            <clipPath clipPathUnits="userSpaceOnUse" id="clipPath93">
                <path d="M730 330 L730 702 L989 702 L989 330 Z"/>
            </clipPath>
            <clipPath clipPathUnits="userSpaceOnUse" id="clipPath94">
                <path d="M841 332 L880 332 L880 351 L841 351 L841 332 Z"/>
            </clipPath>
            <clipPath clipPathUnits="userSpaceOnUse" id="clipPath95">
                <path d="M826 350 L895 350 L895 369 L826 369 L826 350 Z"/>
            </clipPath>
            <clipPath clipPathUnits="userSpaceOnUse" id="clipPath96">
                <path d="M843 370 L879 370 L879 388 L843 388 L843 370 Z"/>
            </clipPath>
            <clipPath clipPathUnits="userSpaceOnUse" id="clipPath97">
                <path d="M735 387 L786 387 L786 407 L735 407 L735 387 Z"/>
            </clipPath>
            <clipPath clipPathUnits="userSpaceOnUse" id="clipPath98">
                <path d="M735 405 L836 405 L836 425 L735 425 L735 405 Z"/>
            </clipPath>
            <clipPath clipPathUnits="userSpaceOnUse" id="clipPath99">
                <path d="M735 423 L845 423 L845 443 L735 443 L735 423 Z"/>
            </clipPath>
            <clipPath clipPathUnits="userSpaceOnUse" id="clipPath100">
                <path d="M735 441 L886 441 L886 461 L735 461 L735 441 Z"/>
            </clipPath>
            <clipPath clipPathUnits="userSpaceOnUse" id="clipPath101">
                <path d="M735 459 L874 459 L874 479 L735 479 L735 459 Z"/>
            </clipPath>
            <clipPath clipPathUnits="userSpaceOnUse" id="clipPath102">
                <path d="M735 477 L982 477 L982 497 L735 497 L735 477 Z"/>
            </clipPath>
            <clipPath clipPathUnits="userSpaceOnUse" id="clipPath103">
                <path d="M735 495 L901 495 L901 515 L735 515 L735 495 Z"/>
            </clipPath>
            <clipPath clipPathUnits="userSpaceOnUse" id="clipPath104">
                <path d="M735 513 L894 513 L894 533 L735 533 L735 513 Z"/>
            </clipPath>
            <clipPath clipPathUnits="userSpaceOnUse" id="clipPath105">
                <path d="M735 531 L862 531 L862 551 L735 551 L735 531 Z"/>
            </clipPath>
            <clipPath clipPathUnits="userSpaceOnUse" id="clipPath106">
                <path d="M735 549 L905 549 L905 569 L735 569 L735 549 Z"/>
            </clipPath>
            <clipPath clipPathUnits="userSpaceOnUse" id="clipPath107">
                <path d="M735 567 L879 567 L879 587 L735 587 L735 567 Z"/>
            </clipPath>
            <clipPath clipPathUnits="userSpaceOnUse" id="clipPath108">
                <path d="M730 368 L991 368 L991 616 L730 616 L730 368 Z"/>
            </clipPath>
            <clipPath clipPathUnits="userSpaceOnUse" id="clipPath109">
                <path d="M729 329 L991 329 L991 704 L729 704 L729 329 Z"/>
            </clipPath>
            <clipPath clipPathUnits="userSpaceOnUse" id="clipPath110">
                <path d="M831 627 L891 627 L891 645 L831 645 L831 627 Z"/>
            </clipPath>
            <clipPath clipPathUnits="userSpaceOnUse" id="clipPath111">
                <path d="M735 644 L797 644 L797 663 L735 663 L735 644 Z"/>
            </clipPath>
            <clipPath clipPathUnits="userSpaceOnUse" id="clipPath112">
                <path d="M735 661 L798 661 L798 680 L735 680 L735 661 Z"/>
            </clipPath>
            <clipPath clipPathUnits="userSpaceOnUse" id="clipPath113">
                <path d="M730 625 L991 625 L991 704 L730 704 L730 625 Z"/>
            </clipPath>
            <clipPath clipPathUnits="userSpaceOnUse" id="clipPath114">
                <path d="M-1 -1 L1001 -1 L1001 865 L-1 865 L-1 -1 Z"/>
            </clipPath>
            <clipPath clipPathUnits="userSpaceOnUse" id="clipPath115">
                <path d="M301 389 L320 389 L320 402 L301 402 L301 389 Z"/>
            </clipPath>
            <clipPath clipPathUnits="userSpaceOnUse" id="clipPath116">
                <path d="M781 220 L800 220 L800 233 L781 233 L781 220 Z"/>
            </clipPath>
        </defs>
        <g font-size="14px" fill="url(#linearGradient1)" font-family="'Ubuntu Sans'" stroke-linejoin="round" stroke="url(#linearGradient1)" stroke-width="0" stroke-miterlimit="0">
            <rect x="210" width="209" height="381" y="10" clip-path="url(#clipPath1)" stroke="none"/>
        </g>
        <g stroke-miterlimit="0" stroke-width="0" font-weight="bold" stroke-linejoin="round">
            <text x="294" xml:space="preserve" y="26" clip-path="url(#clipPath2)" stroke="none">«SysD»</text>
            <text x="298" xml:space="preserve" y="44" clip-path="url(#clipPath3)" stroke="none">Lamp</text>
            <text x="296" xml:space="preserve" font-size="10px" y="62" clip-path="url(#clipPath4)" stroke="none">«SysD»</text>
            <text x="216" font-size="14px" y="82" clip-path="url(#clipPath5)" font-family="'Ubuntu Sans'" stroke="none" font-weight="normal" xml:space="preserve">MicrosystemName=[Lamp] </text>
            <text x="216" font-size="14px" y="100" clip-path="url(#clipPath6)" font-family="'Ubuntu Sans'" stroke="none" font-weight="normal" xml:space="preserve">FunctionalProperties=[] </text>
            <text x="216" font-size="14px" y="118" clip-path="url(#clipPath7)" font-family="'Ubuntu Sans'" stroke="none" font-weight="normal" xml:space="preserve">SystemDatabase=MySQL </text>
            <text x="216" font-size="14px" y="136" clip-path="url(#clipPath8)" font-family="'Ubuntu Sans'" stroke="none" font-weight="normal" xml:space="preserve">MicrosystemBehaviour=[] </text>
            <text x="216" font-size="14px" y="154" clip-path="url(#clipPath9)" font-family="'Ubuntu Sans'" stroke="none" font-weight="normal" xml:space="preserve">isEncapsulated=false </text>
        </g>
        <g font-size="14px" stroke-width="2.1" font-family="'Ubuntu Sans'" stroke-linecap="butt">
            <line y2="50" fill="none" x1="210" clip-path="url(#clipPath10)" x2="418" y1="50"/>
            <line clip-path="url(#clipPath11)" fill="none" x1="210" x2="419" y1="49" y2="49" stroke-width="1.1"/>
        </g>
        <g font-size="10px" stroke-width="1.1" font-weight="bold" stroke-linecap="butt">
            <text x="288" xml:space="preserve" y="247" clip-path="url(#clipPath12)" stroke="none">attributes</text>
            <text x="216" xml:space="preserve" font-size="12px" y="266" clip-path="url(#clipPath13)" stroke="none">«FullPort»   Light</text>
            <text x="216" xml:space="preserve" font-size="12px" y="283" clip-path="url(#clipPath14)" stroke="none">«FullPort»   ServiceDiscovery</text>
            <text x="216" xml:space="preserve" font-size="12px" y="300" clip-path="url(#clipPath15)" stroke="none">«FullPort»   ServiceOrchestration</text>
            <text x="216" xml:space="preserve" font-size="12px" y="317" clip-path="url(#clipPath16)" stroke="none">«FullPort»   GetPublicKey</text>
            <text x="216" xml:space="preserve" font-size="12px" y="334" clip-path="url(#clipPath17)" stroke="none">«FullPort»   ConsumerAuthenti...</text>
            <text x="216" xml:space="preserve" font-size="12px" y="351" clip-path="url(#clipPath18)" stroke="none">«FullPort»   SysMonitor</text>
        </g>
        <g font-size="14px" stroke-width="2.1" font-family="'Ubuntu Sans'" stroke-linecap="butt">
            <line y2="235" fill="none" x1="210" clip-path="url(#clipPath19)" x2="418" y1="235"/>
            <text x="286" font-size="10px" y="376" clip-path="url(#clipPath20)" font-family="'Dialog'" stroke="none" font-weight="bold" xml:space="preserve">operations</text>
            <line y2="364" fill="none" x1="210" clip-path="url(#clipPath21)" x2="418" y1="364"/>
            <rect x="211" y="11" clip-path="url(#clipPath11)" fill="none" width="207" rx="0" ry="0" height="379"/>
            <rect x="409" y="76" clip-path="url(#clipPath22)" fill="url(#linearGradient2)" width="20" height="20" stroke="none"/>
            <rect x="410" y="77" clip-path="url(#clipPath23)" fill="none" width="18" rx="0" ry="0" height="18"/>
            <text x="434" font-size="12px" y="92" clip-path="url(#clipPath24)" font-family="'Dialog'" stroke="none" font-weight="bold" xml:space="preserve"> Light</text>
            <rect x="200" y="60" clip-path="url(#clipPath25)" fill="url(#linearGradient3)" width="20" height="20" stroke="none"/>
            <rect x="201" y="61" clip-path="url(#clipPath26)" fill="none" width="18" rx="0" ry="0" height="18"/>
            <text x="50" font-size="12px" y="83" clip-path="url(#clipPath27)" font-family="'Dialog'" stroke="none" font-weight="bold" xml:space="preserve"> ServiceDiscovery</text>
            <rect x="200" y="100" clip-path="url(#clipPath28)" fill="url(#linearGradient4)" width="20" height="20" stroke="none"/>
            <rect x="201" y="101" clip-path="url(#clipPath29)" fill="none" width="18" rx="0" ry="0" height="18"/>
            <text x="50" font-size="12px" y="123" clip-path="url(#clipPath30)" font-family="'Dialog'" stroke="none" font-weight="bold" xml:space="preserve"> ServiceOrchestration</text>
            <rect x="200" y="140" clip-path="url(#clipPath31)" fill="url(#linearGradient5)" width="20" height="20" stroke="none"/>
            <rect x="201" y="141" clip-path="url(#clipPath32)" fill="none" width="18" rx="0" ry="0" height="18"/>
            <text x="50" font-size="12px" y="163" clip-path="url(#clipPath33)" font-family="'Dialog'" stroke="none" font-weight="bold" xml:space="preserve"> GetPublicKey</text>
            <rect x="200" y="180" clip-path="url(#clipPath34)" fill="url(#linearGradient6)" width="20" height="20" stroke="none"/>
            <rect x="201" y="181" clip-path="url(#clipPath35)" fill="none" width="18" rx="0" ry="0" height="18"/>
            <text x="50" font-size="12px" y="203" clip-path="url(#clipPath36)" font-family="'Dialog'" stroke="none" font-weight="bold" xml:space="preserve"> ConsumerAuthentication</text>
            <rect x="409" y="176" clip-path="url(#clipPath37)" fill="url(#linearGradient7)" width="20" height="20" stroke="none"/>
            <rect x="410" y="177" clip-path="url(#clipPath38)" fill="none" width="18" rx="0" ry="0" height="18"/>
            <text x="434" font-size="12px" y="192" clip-path="url(#clipPath39)" font-family="'Dialog'" stroke="none" font-weight="bold" xml:space="preserve"> SysMonitor</text>
            <rect x="730" y="10" clip-path="url(#clipPath40)" fill="url(#linearGradient8)" width="183" height="211" stroke="none"/>
            <text x="807" font-size="12px" y="26" clip-path="url(#clipPath41)" font-family="'Dialog'" stroke="none" font-weight="bold" xml:space="preserve">«SD»</text>
            <text x="806" font-size="12px" y="44" clip-path="url(#clipPath42)" font-family="'Dialog'" stroke="none" font-weight="bold" xml:space="preserve">Light</text>
            <text x="808" font-size="10px" y="62" clip-path="url(#clipPath43)" font-family="'Dialog'" stroke="none" font-weight="bold" xml:space="preserve">«SD»</text>
            <text x="736" xml:space="preserve" y="82" clip-path="url(#clipPath44)" stroke="none">MicroserviceName=Light </text>
            <text x="736" xml:space="preserve" y="100" clip-path="url(#clipPath45)" stroke="none">isEncapsulated=false </text>
            <line y2="50" fill="none" x1="730" clip-path="url(#clipPath46)" x2="913" y1="50"/>
            <line clip-path="url(#clipPath47)" fill="none" x1="730" x2="913" y1="49" y2="49" stroke-width="1.1"/>
        </g>
        <g font-size="10px" stroke-width="1.1" font-weight="bold" stroke-linecap="butt">
            <text x="793" xml:space="preserve" y="157" clip-path="url(#clipPath48)" stroke="none">operations</text>
            <text x="736" xml:space="preserve" font-size="12px" y="176" clip-path="url(#clipPath49)" stroke="none">  turn_on()</text>
            <text x="736" xml:space="preserve" font-size="12px" y="193" clip-path="url(#clipPath50)" stroke="none">  turn_off()</text>
        </g>
        <g font-size="14px" stroke-width="2.1" font-family="'Ubuntu Sans'" stroke-linecap="butt">
            <line y2="145" fill="none" x1="730" clip-path="url(#clipPath51)" x2="913" y1="145"/>
            <rect x="731" y="11" clip-path="url(#clipPath47)" fill="none" width="181" rx="0" ry="0" height="209"/>
            <rect x="210" y="470" clip-path="url(#clipPath52)" fill="url(#linearGradient9)" width="297" height="384" stroke="none"/>
            <text x="333" font-size="12px" y="486" clip-path="url(#clipPath53)" font-family="'Dialog'" stroke="none" font-weight="bold" xml:space="preserve">«SysDD»</text>
            <text x="287" font-size="12px" y="504" clip-path="url(#clipPath54)" font-family="'Dialog'" stroke="none" font-weight="bold" xml:space="preserve">LampDesignDescription</text>
            <text x="336" font-size="10px" y="522" clip-path="url(#clipPath55)" font-family="'Dialog'" stroke="none" font-weight="bold" xml:space="preserve">«SysDD»</text>
            <text x="216" xml:space="preserve" y="542" clip-path="url(#clipPath56)" stroke="none">Timeformat=RFC_3339 </text>
            <text x="216" xml:space="preserve" y="560" clip-path="url(#clipPath57)" stroke="none">ArrowheadCertificate=ApplicationSystem </text>
            <text x="216" xml:space="preserve" y="578" clip-path="url(#clipPath58)" stroke="none">MicrosystemName=[] </text>
            <text x="216" xml:space="preserve" y="596" clip-path="url(#clipPath59)" stroke="none">FunctionalProperties=[] </text>
            <text x="216" xml:space="preserve" y="614" clip-path="url(#clipPath60)" stroke="none">SystemDatabase=MySQL </text>
            <text x="216" xml:space="preserve" y="632" clip-path="url(#clipPath61)" stroke="none">MicrosystemBehaviour=[] </text>
            <text x="216" xml:space="preserve" y="650" clip-path="url(#clipPath62)" stroke="none">isEncapsulated=false </text>
            <line y2="510" fill="none" x1="210" clip-path="url(#clipPath63)" x2="506" y1="510"/>
            <line clip-path="url(#clipPath64)" fill="none" x1="210" x2="507" y1="509" y2="509" stroke-width="1.1"/>
        </g>
        <g font-size="10px" stroke-width="1.1" font-weight="bold" stroke-linecap="butt">
            <text x="332" xml:space="preserve" y="707" clip-path="url(#clipPath65)" stroke="none">attributes</text>
            <text x="216" xml:space="preserve" font-size="12px" y="726" clip-path="url(#clipPath66)" stroke="none">«ProxyPort»   Light-HTTP</text>
            <text x="216" xml:space="preserve" font-size="12px" y="743" clip-path="url(#clipPath67)" stroke="none">«ProxyPort»   ConsumerAuthentication-HTTP</text>
            <text x="216" xml:space="preserve" font-size="12px" y="760" clip-path="url(#clipPath68)" stroke="none">«ProxyPort»   ServiceOrchestration-HTTP</text>
            <text x="216" xml:space="preserve" font-size="12px" y="777" clip-path="url(#clipPath69)" stroke="none">«ProxyPort»   GetPublicKey-HTTP</text>
            <text x="216" xml:space="preserve" font-size="12px" y="794" clip-path="url(#clipPath70)" stroke="none">«ProxyPort»   ServiceDiscovery-HTTP</text>
            <text x="216" xml:space="preserve" font-size="12px" y="811" clip-path="url(#clipPath71)" stroke="none">«ProxyPort»   SysMonitor-MQTT</text>
        </g>
        <g font-size="14px" stroke-width="2.1" font-family="'Ubuntu Sans'" stroke-linecap="butt">
            <line y2="695" fill="none" x1="210" clip-path="url(#clipPath72)" x2="506" y1="695"/>
            <text x="330" font-size="10px" y="839" clip-path="url(#clipPath73)" font-family="'Dialog'" stroke="none" font-weight="bold" xml:space="preserve">operations</text>
            <line y2="827" fill="none" x1="210" clip-path="url(#clipPath74)" x2="506" y1="827"/>
            <rect x="211" y="471" clip-path="url(#clipPath64)" fill="none" width="295" rx="0" ry="0" height="382"/>
            <rect x="497" y="600" clip-path="url(#clipPath75)" fill="url(#linearGradient10)" width="20" height="20" stroke="none"/>
            <rect x="498" y="601" clip-path="url(#clipPath76)" fill="none" width="18" rx="0" ry="0" height="18"/>
            <text x="522" font-size="12px" y="616" clip-path="url(#clipPath77)" font-family="'Dialog'" stroke="none" font-weight="bold" xml:space="preserve"> Light-HTTP</text>
            <rect x="200" y="640" clip-path="url(#clipPath78)" fill="url(#linearGradient11)" width="20" height="20" stroke="none"/>
            <rect x="201" y="641" clip-path="url(#clipPath79)" fill="none" width="18" rx="0" ry="0" height="18"/>
            <text x="10" font-size="12px" y="663" clip-path="url(#clipPath80)" font-family="'Dialog'" stroke="none" font-weight="bold" xml:space="preserve"> ConsumerAuthentication-HTTP</text>
            <rect x="200" y="560" clip-path="url(#clipPath81)" fill="url(#linearGradient12)" width="20" height="20" stroke="none"/>
            <rect x="201" y="561" clip-path="url(#clipPath82)" fill="none" width="18" rx="0" ry="0" height="18"/>
            <text x="10" font-size="12px" y="583" clip-path="url(#clipPath83)" font-family="'Dialog'" stroke="none" font-weight="bold" xml:space="preserve"> ServiceOrchestration-HTTP</text>
            <rect x="200" y="600" clip-path="url(#clipPath84)" fill="url(#linearGradient13)" width="20" height="20" stroke="none"/>
            <rect x="201" y="601" clip-path="url(#clipPath85)" fill="none" width="18" rx="0" ry="0" height="18"/>
            <text x="10" font-size="12px" y="623" clip-path="url(#clipPath86)" font-family="'Dialog'" stroke="none" font-weight="bold" xml:space="preserve"> GetPublicKey-HTTP</text>
            <rect x="200" y="520" clip-path="url(#clipPath87)" fill="url(#linearGradient14)" width="20" height="20" stroke="none"/>
            <rect x="201" y="521" clip-path="url(#clipPath88)" fill="none" width="18" rx="0" ry="0" height="18"/>
            <text x="10" font-size="12px" y="543" clip-path="url(#clipPath89)" font-family="'Dialog'" stroke="none" font-weight="bold" xml:space="preserve"> ServiceDiscovery-HTTP</text>
            <rect x="497" y="660" clip-path="url(#clipPath90)" fill="url(#linearGradient15)" width="20" height="20" stroke="none"/>
            <rect x="498" y="661" clip-path="url(#clipPath91)" fill="none" width="18" rx="0" ry="0" height="18"/>
            <text x="522" font-size="12px" y="676" clip-path="url(#clipPath92)" font-family="'Dialog'" stroke="none" font-weight="bold" xml:space="preserve"> SysMonitor-MQTT</text>
            <rect x="730" y="330" clip-path="url(#clipPath93)" fill="url(#linearGradient16)" width="260" height="373" stroke="none"/>
            <text x="842" font-size="12px" y="346" clip-path="url(#clipPath94)" font-family="'Dialog'" stroke="none" font-weight="bold" xml:space="preserve">«IDD»</text>
            <text x="827" font-size="12px" y="364" clip-path="url(#clipPath95)" font-family="'Dialog'" stroke="none" font-weight="bold" xml:space="preserve">Light-HTTP</text>
            <text x="844" font-size="10px" y="382" clip-path="url(#clipPath96)" font-family="'Dialog'" stroke="none" font-weight="bold" xml:space="preserve">«IDD»</text>
            <text x="736" xml:space="preserve" y="402" clip-path="url(#clipPath97)" stroke="none">Port=0 </text>
            <text x="736" xml:space="preserve" y="420" clip-path="url(#clipPath98)" stroke="none">Protocol=http </text>
            <text x="736" xml:space="preserve" y="438" clip-path="url(#clipPath99)" stroke="none">Encoding=JSON </text>
            <text x="736" xml:space="preserve" y="456" clip-path="url(#clipPath100)" stroke="none">Security=CERTIFICATE </text>
            <text x="736" xml:space="preserve" y="474" clip-path="url(#clipPath101)" stroke="none">Compression=NONE </text>
            <text x="736" xml:space="preserve" y="492" clip-path="url(#clipPath102)" stroke="none">Certificate_level=ApplicationSystem </text>
            <text x="736" xml:space="preserve" y="510" clip-path="url(#clipPath103)" stroke="none">Token=ArrowheadToken </text>
            <text x="736" xml:space="preserve" y="528" clip-path="url(#clipPath104)" stroke="none">Crypto_algorithm=RSA </text>
            <text x="736" xml:space="preserve" y="546" clip-path="url(#clipPath105)" stroke="none">Datamodel=NONE </text>
            <text x="736" xml:space="preserve" y="564" clip-path="url(#clipPath106)" stroke="none">MicroserviceName=Light </text>
            <text x="736" xml:space="preserve" y="582" clip-path="url(#clipPath107)" stroke="none">isEncapsulated=false </text>
            <line y2="370" fill="none" x1="730" clip-path="url(#clipPath108)" x2="990" y1="370"/>
            <line clip-path="url(#clipPath109)" fill="none" x1="730" x2="990" y1="369" y2="369" stroke-width="1.1"/>
        </g>
        <g font-size="10px" stroke-width="1.1" font-weight="bold" stroke-linecap="butt">
            <text x="832" xml:space="preserve" y="639" clip-path="url(#clipPath110)" stroke="none">operations</text>
            <text x="736" xml:space="preserve" font-size="12px" y="658" clip-path="url(#clipPath111)" stroke="none">  turn_on()</text>
            <text x="736" xml:space="preserve" font-size="12px" y="675" clip-path="url(#clipPath112)" stroke="none">  turn_off()</text>
        </g>
        <g font-size="14px" stroke-width="2.1" font-family="'Ubuntu Sans'" stroke-linecap="butt">
            <line y2="627" fill="none" x1="730" clip-path="url(#clipPath113)" x2="990" y1="627"/>
            <rect x="731" y="331" clip-path="url(#clipPath109)" fill="none" width="258" rx="0" ry="0" height="371"/>
        </g>
        <g text-rendering="optimizeLegibility" stroke-width="2.1" font-weight="bold" stroke-linecap="butt">
            <line y2="390" fill="none" x1="310" clip-path="url(#clipPath114)" x2="310" y1="470"/>
            <polygon fill="white" clip-path="url(#clipPath115)" points=" 310 390 318 400 302 400" stroke="none"/>
            <polygon fill="none" stroke-width="1.1" clip-path="url(#clipPath115)" points=" 310 390 318 400 302 400"/>
            <line y2="221" fill="none" x1="790" clip-path="url(#clipPath114)" x2="790" y1="330"/>
            <polygon fill="white" clip-path="url(#clipPath116)" points=" 790 221 798 231 782 231" stroke="none"/>
            <polygon fill="none" stroke-width="1.1" clip-path="url(#clipPath116)" points=" 790 221 798 231 782 231"/>
        </g>
    </g>
</svg>
