<?xml version="1.0" encoding="UTF-8"?><svg xmlns="http://www.w3.org/2000/svg" xmlns:xlink="http://www.w3.org/1999/xlink" stroke-dasharray="none" shape-rendering="auto" font-family="'Dialog'" width="1484" text-rendering="auto" fill-opacity="1" contentScriptType="text/ecmascript" color-interpolation="auto" color-rendering="auto" preserveAspectRatio="xMidYMid meet" font-size="12px" viewBox="0 0 1484 401" fill="black" stroke="black" image-rendering="auto" stroke-miterlimit="10" zoomAndPan="magnify" version="1.0" stroke-linecap="square" stroke-linejoin="miter" contentStyleType="text/css" font-style="normal" height="401" stroke-width="1" stroke-dashoffset="0" font-weight="normal" stroke-opacity="1">
    <!--Generated by the Batik Graphics2D SVG Generator-->
    <defs id="genericDefs"/>
    <g>
        <defs id="defs1">
            <linearGradient x1="190" x2="190" y1="10" gradientUnits="userSpaceOnUse" y2="391" xlink:type="simple" xlink:actuate="onLoad" id="linearGradient1" xlink:show="other" spreadMethod="pad">
                <stop stop-opacity="1" stop-color="rgb(255,128,0)" offset="0%"/>
                <stop stop-opacity="1" stop-color="rgb(255,128,0)" offset="100%"/>
            </linearGradient>
            <linearGradient x1="180" x2="180" y1="60" gradientUnits="userSpaceOnUse" y2="80" xlink:type="simple" xlink:actuate="onLoad" id="linearGradient2" xlink:show="other" spreadMethod="pad">
                <stop stop-opacity="1" stop-color="rgb(155,199,204)" offset="0%"/>
                <stop stop-opacity="1" stop-color="rgb(155,199,204)" offset="100%"/>
            </linearGradient>
            <linearGradient x1="180" x2="180" y1="100" gradientUnits="userSpaceOnUse" y2="120" xlink:type="simple" xlink:actuate="onLoad" id="linearGradient3" xlink:show="other" spreadMethod="pad">
                <stop stop-opacity="1" stop-color="rgb(155,199,204)" offset="0%"/>
                <stop stop-opacity="1" stop-color="rgb(155,199,204)" offset="100%"/>
            </linearGradient>
            <linearGradient x1="180" x2="180" y1="140" gradientUnits="userSpaceOnUse" y2="160" xlink:type="simple" xlink:actuate="onLoad" id="linearGradient4" xlink:show="other" spreadMethod="pad">
                <stop stop-opacity="1" stop-color="rgb(155,199,204)" offset="0%"/>
                <stop stop-opacity="1" stop-color="rgb(155,199,204)" offset="100%"/>
            </linearGradient>
            <linearGradient x1="180" x2="180" y1="180" gradientUnits="userSpaceOnUse" y2="200" xlink:type="simple" xlink:actuate="onLoad" id="linearGradient5" xlink:show="other" spreadMethod="pad">
                <stop stop-opacity="1" stop-color="rgb(155,199,204)" offset="0%"/>
                <stop stop-opacity="1" stop-color="rgb(155,199,204)" offset="100%"/>
            </linearGradient>
            <linearGradient x1="481" x2="481" y1="179" gradientUnits="userSpaceOnUse" y2="199" xlink:type="simple" xlink:actuate="onLoad" id="linearGradient6" xlink:show="other" spreadMethod="pad">
                <stop stop-opacity="1" stop-color="rgb(155,199,204)" offset="0%"/>
                <stop stop-opacity="1" stop-color="rgb(155,199,204)" offset="100%"/>
            </linearGradient>
            <linearGradient x1="481" x2="481" y1="59" gradientUnits="userSpaceOnUse" y2="79" xlink:type="simple" xlink:actuate="onLoad" id="linearGradient7" xlink:show="other" spreadMethod="pad">
                <stop stop-opacity="1" stop-color="rgb(155,199,204)" offset="0%"/>
                <stop stop-opacity="1" stop-color="rgb(155,199,204)" offset="100%"/>
            </linearGradient>
            <linearGradient x1="481" x2="481" y1="99" gradientUnits="userSpaceOnUse" y2="119" xlink:type="simple" xlink:actuate="onLoad" id="linearGradient8" xlink:show="other" spreadMethod="pad">
                <stop stop-opacity="1" stop-color="rgb(155,199,204)" offset="0%"/>
                <stop stop-opacity="1" stop-color="rgb(155,199,204)" offset="100%"/>
            </linearGradient>
            <linearGradient x1="481" x2="481" y1="139" gradientUnits="userSpaceOnUse" y2="159" xlink:type="simple" xlink:actuate="onLoad" id="linearGradient9" xlink:show="other" spreadMethod="pad">
                <stop stop-opacity="1" stop-color="rgb(155,199,204)" offset="0%"/>
                <stop stop-opacity="1" stop-color="rgb(155,199,204)" offset="100%"/>
            </linearGradient>
            <linearGradient x1="630" x2="630" y1="10" gradientUnits="userSpaceOnUse" y2="271" xlink:type="simple" xlink:actuate="onLoad" id="linearGradient10" xlink:show="other" spreadMethod="pad">
                <stop stop-opacity="1" stop-color="rgb(155,199,204)" offset="0%"/>
                <stop stop-opacity="1" stop-color="rgb(155,199,204)" offset="100%"/>
            </linearGradient>
            <linearGradient x1="910" x2="910" y1="10" gradientUnits="userSpaceOnUse" y2="271" xlink:type="simple" xlink:actuate="onLoad" id="linearGradient11" xlink:show="other" spreadMethod="pad">
                <stop stop-opacity="1" stop-color="rgb(155,199,204)" offset="0%"/>
                <stop stop-opacity="1" stop-color="rgb(155,199,204)" offset="100%"/>
            </linearGradient>
            <linearGradient x1="1210" x2="1210" y1="10" gradientUnits="userSpaceOnUse" y2="271" xlink:type="simple" xlink:actuate="onLoad" id="linearGradient12" xlink:show="other" spreadMethod="pad">
                <stop stop-opacity="1" stop-color="rgb(155,199,204)" offset="0%"/>
                <stop stop-opacity="1" stop-color="rgb(155,199,204)" offset="100%"/>
            </linearGradient>
            <clipPath clipPathUnits="userSpaceOnUse" id="clipPath1">
                <path d="M190 10 L190 390 L490 390 L490 10 Z"/>
            </clipPath>
            <clipPath clipPathUnits="userSpaceOnUse" id="clipPath2">
                <path d="M319 12 L364 12 L364 31 L319 31 L319 12 Z"/>
            </clipPath>
            <clipPath clipPathUnits="userSpaceOnUse" id="clipPath3">
                <path d="M322 30 L361 30 L361 49 L322 49 L322 30 Z"/>
            </clipPath>
            <clipPath clipPathUnits="userSpaceOnUse" id="clipPath4">
                <path d="M321 50 L362 50 L362 68 L321 68 L321 50 Z"/>
            </clipPath>
            <clipPath clipPathUnits="userSpaceOnUse" id="clipPath5">
                <path d="M195 67 L343 67 L343 87 L195 87 L195 67 Z"/>
            </clipPath>
            <clipPath clipPathUnits="userSpaceOnUse" id="clipPath6">
                <path d="M195 85 L359 85 L359 105 L195 105 L195 85 Z"/>
            </clipPath>
            <clipPath clipPathUnits="userSpaceOnUse" id="clipPath7">
                <path d="M195 103 L364 103 L364 123 L195 123 L195 103 Z"/>
            </clipPath>
            <clipPath clipPathUnits="userSpaceOnUse" id="clipPath8">
                <path d="M195 121 L371 121 L371 141 L195 141 L195 121 Z"/>
            </clipPath>
            <clipPath clipPathUnits="userSpaceOnUse" id="clipPath9">
                <path d="M195 139 L339 139 L339 159 L195 159 L195 139 Z"/>
            </clipPath>
            <clipPath clipPathUnits="userSpaceOnUse" id="clipPath10">
                <path d="M190 48 L492 48 L492 170 L190 170 L190 48 Z"/>
            </clipPath>
            <clipPath clipPathUnits="userSpaceOnUse" id="clipPath11">
                <path d="M189 9 L492 9 L492 392 L189 392 L189 9 Z"/>
            </clipPath>
            <clipPath clipPathUnits="userSpaceOnUse" id="clipPath12">
                <path d="M313 181 L369 181 L369 199 L313 199 L313 181 Z"/>
            </clipPath>
            <clipPath clipPathUnits="userSpaceOnUse" id="clipPath13">
                <path d="M190 179 L492 179 L492 287 L190 287 L190 179 Z"/>
            </clipPath>
            <clipPath clipPathUnits="userSpaceOnUse" id="clipPath14">
                <path d="M311 288 L371 288 L371 306 L311 306 L311 288 Z"/>
            </clipPath>
            <clipPath clipPathUnits="userSpaceOnUse" id="clipPath15">
                <path d="M190 286 L492 286 L492 392 L190 392 L190 286 Z"/>
            </clipPath>
            <clipPath clipPathUnits="userSpaceOnUse" id="clipPath16">
                <path d="M180 60 L180 79 L199 79 L199 60 Z"/>
            </clipPath>
            <clipPath clipPathUnits="userSpaceOnUse" id="clipPath17">
                <path d="M179 59 L201 59 L201 81 L179 81 L179 59 Z"/>
            </clipPath>
            <clipPath clipPathUnits="userSpaceOnUse" id="clipPath18">
                <path d="M9 69 L115 69 L115 88 L9 88 L9 69 Z"/>
            </clipPath>
            <clipPath clipPathUnits="userSpaceOnUse" id="clipPath19">
                <path d="M180 100 L180 119 L199 119 L199 100 Z"/>
            </clipPath>
            <clipPath clipPathUnits="userSpaceOnUse" id="clipPath20">
                <path d="M179 99 L201 99 L201 121 L179 121 L179 99 Z"/>
            </clipPath>
            <clipPath clipPathUnits="userSpaceOnUse" id="clipPath21">
                <path d="M9 109 L140 109 L140 128 L9 128 L9 109 Z"/>
            </clipPath>
            <clipPath clipPathUnits="userSpaceOnUse" id="clipPath22">
                <path d="M180 140 L180 159 L199 159 L199 140 Z"/>
            </clipPath>
            <clipPath clipPathUnits="userSpaceOnUse" id="clipPath23">
                <path d="M179 139 L201 139 L201 161 L179 161 L179 139 Z"/>
            </clipPath>
            <clipPath clipPathUnits="userSpaceOnUse" id="clipPath24">
                <path d="M9 149 L95 149 L95 168 L9 168 L9 149 Z"/>
            </clipPath>
            <clipPath clipPathUnits="userSpaceOnUse" id="clipPath25">
                <path d="M180 180 L180 199 L199 199 L199 180 Z"/>
            </clipPath>
            <clipPath clipPathUnits="userSpaceOnUse" id="clipPath26">
                <path d="M179 179 L201 179 L201 201 L179 201 L179 179 Z"/>
            </clipPath>
            <clipPath clipPathUnits="userSpaceOnUse" id="clipPath27">
                <path d="M9 189 L165 189 L165 208 L9 208 L9 189 Z"/>
            </clipPath>
            <clipPath clipPathUnits="userSpaceOnUse" id="clipPath28">
                <path d="M481 179 L481 198 L500 198 L500 179 Z"/>
            </clipPath>
            <clipPath clipPathUnits="userSpaceOnUse" id="clipPath29">
                <path d="M480 178 L502 178 L502 200 L480 200 L480 178 Z"/>
            </clipPath>
            <clipPath clipPathUnits="userSpaceOnUse" id="clipPath30">
                <path d="M505 181 L577 181 L577 200 L505 200 L505 181 Z"/>
            </clipPath>
            <clipPath clipPathUnits="userSpaceOnUse" id="clipPath31">
                <path d="M481 59 L481 78 L500 78 L500 59 Z"/>
            </clipPath>
            <clipPath clipPathUnits="userSpaceOnUse" id="clipPath32">
                <path d="M480 58 L502 58 L502 80 L480 80 L480 58 Z"/>
            </clipPath>
            <clipPath clipPathUnits="userSpaceOnUse" id="clipPath33">
                <path d="M505 61 L557 61 L557 80 L505 80 L505 61 Z"/>
            </clipPath>
            <clipPath clipPathUnits="userSpaceOnUse" id="clipPath34">
                <path d="M481 99 L481 118 L500 118 L500 99 Z"/>
            </clipPath>
            <clipPath clipPathUnits="userSpaceOnUse" id="clipPath35">
                <path d="M480 98 L502 98 L502 120 L480 120 L480 98 Z"/>
            </clipPath>
            <clipPath clipPathUnits="userSpaceOnUse" id="clipPath36">
                <path d="M505 101 L560 101 L560 120 L505 120 L505 101 Z"/>
            </clipPath>
            <clipPath clipPathUnits="userSpaceOnUse" id="clipPath37">
                <path d="M481 139 L481 158 L500 158 L500 139 Z"/>
            </clipPath>
            <clipPath clipPathUnits="userSpaceOnUse" id="clipPath38">
                <path d="M480 138 L502 138 L502 160 L480 160 L480 138 Z"/>
            </clipPath>
            <clipPath clipPathUnits="userSpaceOnUse" id="clipPath39">
                <path d="M505 141 L595 141 L595 160 L505 160 L505 141 Z"/>
            </clipPath>
            <clipPath clipPathUnits="userSpaceOnUse" id="clipPath40">
                <path d="M630 10 L630 270 L890 270 L890 10 Z"/>
            </clipPath>
            <clipPath clipPathUnits="userSpaceOnUse" id="clipPath41">
                <path d="M745 12 L777 12 L777 31 L745 31 L745 12 Z"/>
            </clipPath>
            <clipPath clipPathUnits="userSpaceOnUse" id="clipPath42">
                <path d="M737 30 L786 30 L786 49 L737 49 L737 30 Z"/>
            </clipPath>
            <clipPath clipPathUnits="userSpaceOnUse" id="clipPath43">
                <path d="M746 50 L776 50 L776 68 L746 68 L746 50 Z"/>
            </clipPath>
            <clipPath clipPathUnits="userSpaceOnUse" id="clipPath44">
                <path d="M635 67 L826 67 L826 87 L635 87 L635 67 Z"/>
            </clipPath>
            <clipPath clipPathUnits="userSpaceOnUse" id="clipPath45">
                <path d="M635 85 L779 85 L779 105 L635 105 L635 85 Z"/>
            </clipPath>
            <clipPath clipPathUnits="userSpaceOnUse" id="clipPath46">
                <path d="M630 48 L892 48 L892 116 L630 116 L630 48 Z"/>
            </clipPath>
            <clipPath clipPathUnits="userSpaceOnUse" id="clipPath47">
                <path d="M629 9 L892 9 L892 272 L629 272 L629 9 Z"/>
            </clipPath>
            <clipPath clipPathUnits="userSpaceOnUse" id="clipPath48">
                <path d="M731 127 L791 127 L791 145 L731 145 L731 127 Z"/>
            </clipPath>
            <clipPath clipPathUnits="userSpaceOnUse" id="clipPath49">
                <path d="M630 125 L892 125 L892 272 L630 272 L630 125 Z"/>
            </clipPath>
            <clipPath clipPathUnits="userSpaceOnUse" id="clipPath50">
                <path d="M910 10 L910 270 L1190 270 L1190 10 Z"/>
            </clipPath>
            <clipPath clipPathUnits="userSpaceOnUse" id="clipPath51">
                <path d="M1035 12 L1067 12 L1067 31 L1035 31 L1035 12 Z"/>
            </clipPath>
            <clipPath clipPathUnits="userSpaceOnUse" id="clipPath52">
                <path d="M1025 30 L1077 30 L1077 49 L1025 49 L1025 30 Z"/>
            </clipPath>
            <clipPath clipPathUnits="userSpaceOnUse" id="clipPath53">
                <path d="M1036 50 L1066 50 L1066 68 L1036 68 L1036 50 Z"/>
            </clipPath>
            <clipPath clipPathUnits="userSpaceOnUse" id="clipPath54">
                <path d="M915 67 L1106 67 L1106 87 L915 87 L915 67 Z"/>
            </clipPath>
            <clipPath clipPathUnits="userSpaceOnUse" id="clipPath55">
                <path d="M915 85 L1059 85 L1059 105 L915 105 L915 85 Z"/>
            </clipPath>
            <clipPath clipPathUnits="userSpaceOnUse" id="clipPath56">
                <path d="M910 48 L1192 48 L1192 116 L910 116 L910 48 Z"/>
            </clipPath>
            <clipPath clipPathUnits="userSpaceOnUse" id="clipPath57">
                <path d="M909 9 L1192 9 L1192 272 L909 272 L909 9 Z"/>
            </clipPath>
            <clipPath clipPathUnits="userSpaceOnUse" id="clipPath58">
                <path d="M1021 127 L1081 127 L1081 145 L1021 145 L1021 127 Z"/>
            </clipPath>
            <clipPath clipPathUnits="userSpaceOnUse" id="clipPath59">
                <path d="M910 125 L1192 125 L1192 272 L910 272 L910 125 Z"/>
            </clipPath>
            <clipPath clipPathUnits="userSpaceOnUse" id="clipPath60">
                <path d="M1210 10 L1210 270 L1473 270 L1473 10 Z"/>
            </clipPath>
            <clipPath clipPathUnits="userSpaceOnUse" id="clipPath61">
                <path d="M1327 12 L1359 12 L1359 31 L1327 31 L1327 12 Z"/>
            </clipPath>
            <clipPath clipPathUnits="userSpaceOnUse" id="clipPath62">
                <path d="M1299 30 L1386 30 L1386 49 L1299 49 L1299 30 Z"/>
            </clipPath>
            <clipPath clipPathUnits="userSpaceOnUse" id="clipPath63">
                <path d="M1328 50 L1358 50 L1358 68 L1328 68 L1328 50 Z"/>
            </clipPath>
            <clipPath clipPathUnits="userSpaceOnUse" id="clipPath64">
                <path d="M1215 67 L1446 67 L1446 87 L1215 87 L1215 67 Z"/>
            </clipPath>
            <clipPath clipPathUnits="userSpaceOnUse" id="clipPath65">
                <path d="M1215 85 L1359 85 L1359 105 L1215 105 L1215 85 Z"/>
            </clipPath>
            <clipPath clipPathUnits="userSpaceOnUse" id="clipPath66">
                <path d="M1210 48 L1475 48 L1475 134 L1210 134 L1210 48 Z"/>
            </clipPath>
            <clipPath clipPathUnits="userSpaceOnUse" id="clipPath67">
                <path d="M1209 9 L1475 9 L1475 272 L1209 272 L1209 9 Z"/>
            </clipPath>
            <clipPath clipPathUnits="userSpaceOnUse" id="clipPath68">
                <path d="M1313 145 L1373 145 L1373 163 L1313 163 L1313 145 Z"/>
            </clipPath>
            <clipPath clipPathUnits="userSpaceOnUse" id="clipPath69">
                <path d="M1210 143 L1475 143 L1475 272 L1210 272 L1210 143 Z"/>
            </clipPath>
        </defs>
        <g font-size="14px" fill="url(#linearGradient1)" font-family="'Ubuntu Sans'" stroke-linejoin="round" stroke="url(#linearGradient1)" stroke-width="0" stroke-miterlimit="0">
            <rect x="190" width="301" height="381" y="10" clip-path="url(#clipPath1)" stroke="none"/>
        </g>
        <g stroke-miterlimit="0" stroke-width="0" font-weight="bold" stroke-linejoin="round">
            <text x="320" xml:space="preserve" y="26" clip-path="url(#clipPath2)" stroke="none">«SysD»</text>
            <text x="323" xml:space="preserve" y="44" clip-path="url(#clipPath3)" stroke="none">AITool</text>
            <text x="322" xml:space="preserve" font-size="10px" y="62" clip-path="url(#clipPath4)" stroke="none">«SysD»</text>
            <text x="196" font-size="14px" y="82" clip-path="url(#clipPath5)" font-family="'Ubuntu Sans'" stroke="none" font-weight="normal" xml:space="preserve">MicrosystemName=[] </text>
            <text x="196" font-size="14px" y="100" clip-path="url(#clipPath6)" font-family="'Ubuntu Sans'" stroke="none" font-weight="normal" xml:space="preserve">FunctionalProperties=[] </text>
            <text x="196" font-size="14px" y="118" clip-path="url(#clipPath7)" font-family="'Ubuntu Sans'" stroke="none" font-weight="normal" xml:space="preserve">SystemDatabase=MySQL </text>
            <text x="196" font-size="14px" y="136" clip-path="url(#clipPath8)" font-family="'Ubuntu Sans'" stroke="none" font-weight="normal" xml:space="preserve">MicrosystemBehaviour=[] </text>
            <text x="196" font-size="14px" y="154" clip-path="url(#clipPath9)" font-family="'Ubuntu Sans'" stroke="none" font-weight="normal" xml:space="preserve">isEncapsulated=false </text>
        </g>
        <g font-size="14px" stroke-width="2.1" font-family="'Ubuntu Sans'" stroke-linecap="butt">
            <line y2="50" fill="none" x1="190" clip-path="url(#clipPath10)" x2="491" y1="50"/>
            <line clip-path="url(#clipPath11)" fill="none" x1="190" x2="491" y1="49" y2="49" stroke-width="1.1"/>
        </g>
        <g font-size="10px" stroke-width="1.1" font-weight="bold" stroke-linecap="butt">
            <text x="314" xml:space="preserve" y="193" clip-path="url(#clipPath12)" stroke="none">attributes</text>
        </g>
        <g font-size="14px" stroke-width="2.1" font-family="'Ubuntu Sans'" stroke-linecap="butt">
            <line y2="181" fill="none" x1="190" clip-path="url(#clipPath13)" x2="491" y1="181"/>
            <text x="312" font-size="10px" y="300" clip-path="url(#clipPath14)" font-family="'Dialog'" stroke="none" font-weight="bold" xml:space="preserve">operations</text>
            <line y2="288" fill="none" x1="190" clip-path="url(#clipPath15)" x2="491" y1="288"/>
            <rect x="191" y="11" clip-path="url(#clipPath11)" fill="none" width="299" rx="0" ry="0" height="379"/>
            <rect x="180" y="60" clip-path="url(#clipPath16)" fill="url(#linearGradient2)" width="20" height="20" stroke="none"/>
            <rect x="181" y="61" clip-path="url(#clipPath17)" fill="none" width="18" rx="0" ry="0" height="18"/>
            <text x="10" font-size="12px" y="83" clip-path="url(#clipPath18)" font-family="'Dialog'" stroke="none" font-weight="bold" xml:space="preserve"> ServiceDiscovery</text>
            <rect x="180" y="100" clip-path="url(#clipPath19)" fill="url(#linearGradient3)" width="20" height="20" stroke="none"/>
            <rect x="181" y="101" clip-path="url(#clipPath20)" fill="none" width="18" rx="0" ry="0" height="18"/>
            <text x="10" font-size="12px" y="123" clip-path="url(#clipPath21)" font-family="'Dialog'" stroke="none" font-weight="bold" xml:space="preserve"> ServiceOrchestration</text>
            <rect x="180" y="140" clip-path="url(#clipPath22)" fill="url(#linearGradient4)" width="20" height="20" stroke="none"/>
            <rect x="181" y="141" clip-path="url(#clipPath23)" fill="none" width="18" rx="0" ry="0" height="18"/>
            <text x="10" font-size="12px" y="163" clip-path="url(#clipPath24)" font-family="'Dialog'" stroke="none" font-weight="bold" xml:space="preserve"> GetPublicKey</text>
            <rect x="180" y="180" clip-path="url(#clipPath25)" fill="url(#linearGradient5)" width="20" height="20" stroke="none"/>
            <rect x="181" y="181" clip-path="url(#clipPath26)" fill="none" width="18" rx="0" ry="0" height="18"/>
            <text x="10" font-size="12px" y="203" clip-path="url(#clipPath27)" font-family="'Dialog'" stroke="none" font-weight="bold" xml:space="preserve"> ConsumerAuthentication</text>
            <rect x="481" y="179" clip-path="url(#clipPath28)" fill="url(#linearGradient6)" width="20" height="20" stroke="none"/>
            <rect x="482" y="180" clip-path="url(#clipPath29)" fill="none" width="18" rx="0" ry="0" height="18"/>
            <text x="506" font-size="12px" y="195" clip-path="url(#clipPath30)" font-family="'Dialog'" stroke="none" font-weight="bold" xml:space="preserve"> SysMonitor</text>
            <rect x="481" y="59" clip-path="url(#clipPath31)" fill="url(#linearGradient7)" width="20" height="20" stroke="none"/>
            <rect x="482" y="60" clip-path="url(#clipPath32)" fill="none" width="18" rx="0" ry="0" height="18"/>
            <text x="506" font-size="12px" y="75" clip-path="url(#clipPath33)" font-family="'Dialog'" stroke="none" font-weight="bold" xml:space="preserve"> DataSet</text>
            <rect x="481" y="99" clip-path="url(#clipPath34)" fill="url(#linearGradient8)" width="20" height="20" stroke="none"/>
            <rect x="482" y="100" clip-path="url(#clipPath35)" fill="none" width="18" rx="0" ry="0" height="18"/>
            <text x="506" font-size="12px" y="115" clip-path="url(#clipPath36)" font-family="'Dialog'" stroke="none" font-weight="bold" xml:space="preserve"> Training</text>
            <rect x="481" y="139" clip-path="url(#clipPath37)" fill="url(#linearGradient9)" width="20" height="20" stroke="none"/>
            <rect x="482" y="140" clip-path="url(#clipPath38)" fill="none" width="18" rx="0" ry="0" height="18"/>
            <text x="506" font-size="12px" y="155" clip-path="url(#clipPath39)" font-family="'Dialog'" stroke="none" font-weight="bold" xml:space="preserve"> Preprocessing</text>
            <rect x="630" y="10" clip-path="url(#clipPath40)" fill="url(#linearGradient10)" width="261" height="261" stroke="none"/>
            <text x="746" font-size="12px" y="26" clip-path="url(#clipPath41)" font-family="'Dialog'" stroke="none" font-weight="bold" xml:space="preserve">«SD»</text>
            <text x="738" font-size="12px" y="44" clip-path="url(#clipPath42)" font-family="'Dialog'" stroke="none" font-weight="bold" xml:space="preserve">DataSet</text>
            <text x="747" font-size="10px" y="62" clip-path="url(#clipPath43)" font-family="'Dialog'" stroke="none" font-weight="bold" xml:space="preserve">«SD»</text>
            <text x="636" xml:space="preserve" y="82" clip-path="url(#clipPath44)" stroke="none">MicroserviceName=DataSet </text>
            <text x="636" xml:space="preserve" y="100" clip-path="url(#clipPath45)" stroke="none">isEncapsulated=false </text>
            <line y2="50" fill="none" x1="630" clip-path="url(#clipPath46)" x2="891" y1="50"/>
            <line clip-path="url(#clipPath47)" fill="none" x1="630" x2="891" y1="49" y2="49" stroke-width="1.1"/>
        </g>
        <g font-size="10px" stroke-width="1.1" font-weight="bold" stroke-linecap="butt">
            <text x="732" xml:space="preserve" y="139" clip-path="url(#clipPath48)" stroke="none">operations</text>
        </g>
        <g font-size="14px" stroke-width="2.1" font-family="'Ubuntu Sans'" stroke-linecap="butt">
            <line y2="127" fill="none" x1="630" clip-path="url(#clipPath49)" x2="891" y1="127"/>
            <rect x="631" y="11" clip-path="url(#clipPath47)" fill="none" width="259" rx="0" ry="0" height="259"/>
            <rect x="910" y="10" clip-path="url(#clipPath50)" fill="url(#linearGradient11)" width="281" height="261" stroke="none"/>
            <text x="1036" font-size="12px" y="26" clip-path="url(#clipPath51)" font-family="'Dialog'" stroke="none" font-weight="bold" xml:space="preserve">«SD»</text>
            <text x="1026" font-size="12px" y="44" clip-path="url(#clipPath52)" font-family="'Dialog'" stroke="none" font-weight="bold" xml:space="preserve">Training</text>
            <text x="1037" font-size="10px" y="62" clip-path="url(#clipPath53)" font-family="'Dialog'" stroke="none" font-weight="bold" xml:space="preserve">«SD»</text>
            <text x="916" xml:space="preserve" y="82" clip-path="url(#clipPath54)" stroke="none">MicroserviceName=Training </text>
            <text x="916" xml:space="preserve" y="100" clip-path="url(#clipPath55)" stroke="none">isEncapsulated=false </text>
            <line y2="50" fill="none" x1="910" clip-path="url(#clipPath56)" x2="1191" y1="50"/>
            <line clip-path="url(#clipPath57)" fill="none" x1="910" x2="1191" y1="49" y2="49" stroke-width="1.1"/>
        </g>
        <g font-size="10px" stroke-width="1.1" font-weight="bold" stroke-linecap="butt">
            <text x="1022" xml:space="preserve" y="139" clip-path="url(#clipPath58)" stroke="none">operations</text>
        </g>
        <g font-size="14px" stroke-width="2.1" font-family="'Ubuntu Sans'" stroke-linecap="butt">
            <line y2="127" fill="none" x1="910" clip-path="url(#clipPath59)" x2="1191" y1="127"/>
            <rect x="911" y="11" clip-path="url(#clipPath57)" fill="none" width="279" rx="0" ry="0" height="259"/>
            <rect x="1210" y="10" clip-path="url(#clipPath60)" fill="url(#linearGradient12)" width="264" height="261" stroke="none"/>
            <text x="1328" font-size="12px" y="26" clip-path="url(#clipPath61)" font-family="'Dialog'" stroke="none" font-weight="bold" xml:space="preserve">«SD»</text>
            <text x="1300" font-size="12px" y="44" clip-path="url(#clipPath62)" font-family="'Dialog'" stroke="none" font-weight="bold" xml:space="preserve">Preprocessing</text>
            <text x="1329" font-size="10px" y="62" clip-path="url(#clipPath63)" font-family="'Dialog'" stroke="none" font-weight="bold" xml:space="preserve">«SD»</text>
            <text x="1216" xml:space="preserve" y="82" clip-path="url(#clipPath64)" stroke="none">MicroserviceName=Preprocessing </text>
            <text x="1216" xml:space="preserve" y="100" clip-path="url(#clipPath65)" stroke="none">isEncapsulated=false </text>
            <line y2="50" fill="none" x1="1210" clip-path="url(#clipPath66)" x2="1474" y1="50"/>
            <line clip-path="url(#clipPath67)" fill="none" x1="1210" x2="1474" y1="49" y2="49" stroke-width="1.1"/>
        </g>
        <g font-size="10px" stroke-width="1.1" font-weight="bold" stroke-linecap="butt">
            <text x="1314" xml:space="preserve" y="157" clip-path="url(#clipPath68)" stroke="none">operations</text>
        </g>
        <g font-size="14px" stroke-width="2.1" font-family="'Ubuntu Sans'" stroke-linecap="butt">
            <line y2="145" fill="none" x1="1210" clip-path="url(#clipPath69)" x2="1474" y1="145"/>
            <rect x="1211" y="11" clip-path="url(#clipPath67)" fill="none" width="262" rx="0" ry="0" height="259"/>
        </g>
    </g>
</svg>
