<?xml version="1.0" encoding="UTF-8"?><svg xmlns="http://www.w3.org/2000/svg" xmlns:xlink="http://www.w3.org/1999/xlink" stroke-dasharray="none" shape-rendering="auto" font-family="'Dialog'" width="961" text-rendering="auto" fill-opacity="1" contentScriptType="text/ecmascript" color-interpolation="auto" color-rendering="auto" preserveAspectRatio="xMidYMid meet" font-size="12px" viewBox="0 0 961 471" fill="black" stroke="black" image-rendering="auto" stroke-miterlimit="10" zoomAndPan="magnify" version="1.0" stroke-linecap="square" stroke-linejoin="miter" contentStyleType="text/css" font-style="normal" height="471" stroke-width="1" stroke-dashoffset="0" font-weight="normal" stroke-opacity="1">
    <!--Generated by the Batik Graphics2D SVG Generator-->
    <defs id="genericDefs"/>
    <g>
        <defs id="defs1">
            <linearGradient x1="208" x2="208" y1="10" gradientUnits="userSpaceOnUse" y2="461" xlink:type="simple" xlink:actuate="onLoad" id="linearGradient1" xlink:show="other" spreadMethod="pad">
                <stop stop-opacity="1" stop-color="rgb(255,128,0)" offset="0%"/>
                <stop stop-opacity="1" stop-color="rgb(255,128,0)" offset="100%"/>
            </linearGradient>
            <linearGradient x1="521" x2="521" y1="69" gradientUnits="userSpaceOnUse" y2="89" xlink:type="simple" xlink:actuate="onLoad" id="linearGradient2" xlink:show="other" spreadMethod="pad">
                <stop stop-opacity="1" stop-color="rgb(155,199,204)" offset="0%"/>
                <stop stop-opacity="1" stop-color="rgb(155,199,204)" offset="100%"/>
            </linearGradient>
            <linearGradient x1="198" x2="198" y1="68" gradientUnits="userSpaceOnUse" y2="88" xlink:type="simple" xlink:actuate="onLoad" id="linearGradient3" xlink:show="other" spreadMethod="pad">
                <stop stop-opacity="1" stop-color="rgb(155,199,204)" offset="0%"/>
                <stop stop-opacity="1" stop-color="rgb(155,199,204)" offset="100%"/>
            </linearGradient>
            <linearGradient x1="198" x2="198" y1="109" gradientUnits="userSpaceOnUse" y2="129" xlink:type="simple" xlink:actuate="onLoad" id="linearGradient4" xlink:show="other" spreadMethod="pad">
                <stop stop-opacity="1" stop-color="rgb(155,199,204)" offset="0%"/>
                <stop stop-opacity="1" stop-color="rgb(155,199,204)" offset="100%"/>
            </linearGradient>
            <linearGradient x1="198" x2="198" y1="150" gradientUnits="userSpaceOnUse" y2="170" xlink:type="simple" xlink:actuate="onLoad" id="linearGradient5" xlink:show="other" spreadMethod="pad">
                <stop stop-opacity="1" stop-color="rgb(155,199,204)" offset="0%"/>
                <stop stop-opacity="1" stop-color="rgb(155,199,204)" offset="100%"/>
            </linearGradient>
            <linearGradient x1="198" x2="198" y1="190" gradientUnits="userSpaceOnUse" y2="210" xlink:type="simple" xlink:actuate="onLoad" id="linearGradient6" xlink:show="other" spreadMethod="pad">
                <stop stop-opacity="1" stop-color="rgb(155,199,204)" offset="0%"/>
                <stop stop-opacity="1" stop-color="rgb(155,199,204)" offset="100%"/>
            </linearGradient>
            <linearGradient x1="521" x2="521" y1="186" gradientUnits="userSpaceOnUse" y2="206" xlink:type="simple" xlink:actuate="onLoad" id="linearGradient7" xlink:show="other" spreadMethod="pad">
                <stop stop-opacity="1" stop-color="rgb(155,199,204)" offset="0%"/>
                <stop stop-opacity="1" stop-color="rgb(155,199,204)" offset="100%"/>
            </linearGradient>
            <linearGradient x1="198" x2="198" y1="271" gradientUnits="userSpaceOnUse" y2="291" xlink:type="simple" xlink:actuate="onLoad" id="linearGradient8" xlink:show="other" spreadMethod="pad">
                <stop stop-opacity="1" stop-color="rgb(155,199,204)" offset="0%"/>
                <stop stop-opacity="1" stop-color="rgb(155,199,204)" offset="100%"/>
            </linearGradient>
            <linearGradient x1="198" x2="198" y1="311" gradientUnits="userSpaceOnUse" y2="331" xlink:type="simple" xlink:actuate="onLoad" id="linearGradient9" xlink:show="other" spreadMethod="pad">
                <stop stop-opacity="1" stop-color="rgb(155,199,204)" offset="0%"/>
                <stop stop-opacity="1" stop-color="rgb(155,199,204)" offset="100%"/>
            </linearGradient>
            <linearGradient x1="198" x2="198" y1="351" gradientUnits="userSpaceOnUse" y2="371" xlink:type="simple" xlink:actuate="onLoad" id="linearGradient10" xlink:show="other" spreadMethod="pad">
                <stop stop-opacity="1" stop-color="rgb(155,199,204)" offset="0%"/>
                <stop stop-opacity="1" stop-color="rgb(155,199,204)" offset="100%"/>
            </linearGradient>
            <linearGradient x1="198" x2="198" y1="392" gradientUnits="userSpaceOnUse" y2="412" xlink:type="simple" xlink:actuate="onLoad" id="linearGradient11" xlink:show="other" spreadMethod="pad">
                <stop stop-opacity="1" stop-color="rgb(155,199,204)" offset="0%"/>
                <stop stop-opacity="1" stop-color="rgb(155,199,204)" offset="100%"/>
            </linearGradient>
            <linearGradient x1="198" x2="198" y1="432" gradientUnits="userSpaceOnUse" y2="452" xlink:type="simple" xlink:actuate="onLoad" id="linearGradient12" xlink:show="other" spreadMethod="pad">
                <stop stop-opacity="1" stop-color="rgb(155,199,204)" offset="0%"/>
                <stop stop-opacity="1" stop-color="rgb(155,199,204)" offset="100%"/>
            </linearGradient>
            <linearGradient x1="630" x2="630" y1="20" gradientUnits="userSpaceOnUse" y2="261" xlink:type="simple" xlink:actuate="onLoad" id="linearGradient13" xlink:show="other" spreadMethod="pad">
                <stop stop-opacity="1" stop-color="rgb(155,199,204)" offset="0%"/>
                <stop stop-opacity="1" stop-color="rgb(155,199,204)" offset="100%"/>
            </linearGradient>
            <clipPath clipPathUnits="userSpaceOnUse" id="clipPath1">
                <path d="M208 10 L208 460 L530 460 L530 10 Z"/>
            </clipPath>
            <clipPath clipPathUnits="userSpaceOnUse" id="clipPath2">
                <path d="M348 12 L393 12 L393 31 L348 31 L348 12 Z"/>
            </clipPath>
            <clipPath clipPathUnits="userSpaceOnUse" id="clipPath3">
                <path d="M323 30 L418 30 L418 49 L323 49 L323 30 Z"/>
            </clipPath>
            <clipPath clipPathUnits="userSpaceOnUse" id="clipPath4">
                <path d="M350 50 L391 50 L391 68 L350 68 L350 50 Z"/>
            </clipPath>
            <clipPath clipPathUnits="userSpaceOnUse" id="clipPath5">
                <path d="M213 67 L361 67 L361 87 L213 87 L213 67 Z"/>
            </clipPath>
            <clipPath clipPathUnits="userSpaceOnUse" id="clipPath6">
                <path d="M213 85 L377 85 L377 105 L213 105 L213 85 Z"/>
            </clipPath>
            <clipPath clipPathUnits="userSpaceOnUse" id="clipPath7">
                <path d="M213 103 L382 103 L382 123 L213 123 L213 103 Z"/>
            </clipPath>
            <clipPath clipPathUnits="userSpaceOnUse" id="clipPath8">
                <path d="M213 121 L389 121 L389 141 L213 141 L213 121 Z"/>
            </clipPath>
            <clipPath clipPathUnits="userSpaceOnUse" id="clipPath9">
                <path d="M213 139 L357 139 L357 159 L213 159 L213 139 Z"/>
            </clipPath>
            <clipPath clipPathUnits="userSpaceOnUse" id="clipPath10">
                <path d="M208 48 L532 48 L532 170 L208 170 L208 48 Z"/>
            </clipPath>
            <clipPath clipPathUnits="userSpaceOnUse" id="clipPath11">
                <path d="M207 9 L532 9 L532 462 L207 462 L207 9 Z"/>
            </clipPath>
            <clipPath clipPathUnits="userSpaceOnUse" id="clipPath12">
                <path d="M342 181 L398 181 L398 199 L342 199 L342 181 Z"/>
            </clipPath>
            <clipPath clipPathUnits="userSpaceOnUse" id="clipPath13">
                <path d="M208 179 L532 179 L532 322 L208 322 L208 179 Z"/>
            </clipPath>
            <clipPath clipPathUnits="userSpaceOnUse" id="clipPath14">
                <path d="M340 323 L400 323 L400 341 L340 341 L340 323 Z"/>
            </clipPath>
            <clipPath clipPathUnits="userSpaceOnUse" id="clipPath15">
                <path d="M208 321 L532 321 L532 462 L208 462 L208 321 Z"/>
            </clipPath>
            <clipPath clipPathUnits="userSpaceOnUse" id="clipPath16">
                <path d="M521 69 L521 88 L540 88 L540 69 Z"/>
            </clipPath>
            <clipPath clipPathUnits="userSpaceOnUse" id="clipPath17">
                <path d="M520 68 L542 68 L542 90 L520 90 L520 68 Z"/>
            </clipPath>
            <clipPath clipPathUnits="userSpaceOnUse" id="clipPath18">
                <path d="M545 71 L598 71 L598 90 L545 90 L545 71 Z"/>
            </clipPath>
            <clipPath clipPathUnits="userSpaceOnUse" id="clipPath19">
                <path d="M198 68 L198 87 L217 87 L217 68 Z"/>
            </clipPath>
            <clipPath clipPathUnits="userSpaceOnUse" id="clipPath20">
                <path d="M197 67 L219 67 L219 89 L197 89 L197 67 Z"/>
            </clipPath>
            <clipPath clipPathUnits="userSpaceOnUse" id="clipPath21">
                <path d="M9 79 L115 79 L115 98 L9 98 L9 79 Z"/>
            </clipPath>
            <clipPath clipPathUnits="userSpaceOnUse" id="clipPath22">
                <path d="M198 109 L198 128 L217 128 L217 109 Z"/>
            </clipPath>
            <clipPath clipPathUnits="userSpaceOnUse" id="clipPath23">
                <path d="M197 108 L219 108 L219 130 L197 130 L197 108 Z"/>
            </clipPath>
            <clipPath clipPathUnits="userSpaceOnUse" id="clipPath24">
                <path d="M9 119 L140 119 L140 138 L9 138 L9 119 Z"/>
            </clipPath>
            <clipPath clipPathUnits="userSpaceOnUse" id="clipPath25">
                <path d="M198 150 L198 169 L217 169 L217 150 Z"/>
            </clipPath>
            <clipPath clipPathUnits="userSpaceOnUse" id="clipPath26">
                <path d="M197 149 L219 149 L219 171 L197 171 L197 149 Z"/>
            </clipPath>
            <clipPath clipPathUnits="userSpaceOnUse" id="clipPath27">
                <path d="M9 159 L95 159 L95 178 L9 178 L9 159 Z"/>
            </clipPath>
            <clipPath clipPathUnits="userSpaceOnUse" id="clipPath28">
                <path d="M198 190 L198 209 L217 209 L217 190 Z"/>
            </clipPath>
            <clipPath clipPathUnits="userSpaceOnUse" id="clipPath29">
                <path d="M197 189 L219 189 L219 211 L197 211 L197 189 Z"/>
            </clipPath>
            <clipPath clipPathUnits="userSpaceOnUse" id="clipPath30">
                <path d="M9 199 L165 199 L165 218 L9 218 L9 199 Z"/>
            </clipPath>
            <clipPath clipPathUnits="userSpaceOnUse" id="clipPath31">
                <path d="M521 186 L521 205 L540 205 L540 186 Z"/>
            </clipPath>
            <clipPath clipPathUnits="userSpaceOnUse" id="clipPath32">
                <path d="M520 185 L542 185 L542 207 L520 207 L520 185 Z"/>
            </clipPath>
            <clipPath clipPathUnits="userSpaceOnUse" id="clipPath33">
                <path d="M545 188 L617 188 L617 207 L545 207 L545 188 Z"/>
            </clipPath>
            <clipPath clipPathUnits="userSpaceOnUse" id="clipPath34">
                <path d="M198 271 L198 290 L217 290 L217 271 Z"/>
            </clipPath>
            <clipPath clipPathUnits="userSpaceOnUse" id="clipPath35">
                <path d="M197 270 L219 270 L219 292 L197 292 L197 270 Z"/>
            </clipPath>
            <clipPath clipPathUnits="userSpaceOnUse" id="clipPath36">
                <path d="M9 279 L46 279 L46 298 L9 298 L9 279 Z"/>
            </clipPath>
            <clipPath clipPathUnits="userSpaceOnUse" id="clipPath37">
                <path d="M198 311 L198 330 L217 330 L217 311 Z"/>
            </clipPath>
            <clipPath clipPathUnits="userSpaceOnUse" id="clipPath38">
                <path d="M197 310 L219 310 L219 332 L197 332 L197 310 Z"/>
            </clipPath>
            <clipPath clipPathUnits="userSpaceOnUse" id="clipPath39">
                <path d="M9 319 L65 319 L65 338 L9 338 L9 319 Z"/>
            </clipPath>
            <clipPath clipPathUnits="userSpaceOnUse" id="clipPath40">
                <path d="M198 351 L198 370 L217 370 L217 351 Z"/>
            </clipPath>
            <clipPath clipPathUnits="userSpaceOnUse" id="clipPath41">
                <path d="M197 350 L219 350 L219 372 L197 372 L197 350 Z"/>
            </clipPath>
            <clipPath clipPathUnits="userSpaceOnUse" id="clipPath42">
                <path d="M9 359 L61 359 L61 378 L9 378 L9 359 Z"/>
            </clipPath>
            <clipPath clipPathUnits="userSpaceOnUse" id="clipPath43">
                <path d="M198 392 L198 411 L217 411 L217 392 Z"/>
            </clipPath>
            <clipPath clipPathUnits="userSpaceOnUse" id="clipPath44">
                <path d="M197 391 L219 391 L219 413 L197 413 L197 391 Z"/>
            </clipPath>
            <clipPath clipPathUnits="userSpaceOnUse" id="clipPath45">
                <path d="M9 399 L64 399 L64 418 L9 418 L9 399 Z"/>
            </clipPath>
            <clipPath clipPathUnits="userSpaceOnUse" id="clipPath46">
                <path d="M198 432 L198 451 L217 451 L217 432 Z"/>
            </clipPath>
            <clipPath clipPathUnits="userSpaceOnUse" id="clipPath47">
                <path d="M197 431 L219 431 L219 453 L197 453 L197 431 Z"/>
            </clipPath>
            <clipPath clipPathUnits="userSpaceOnUse" id="clipPath48">
                <path d="M9 439 L99 439 L99 458 L9 458 L9 439 Z"/>
            </clipPath>
            <clipPath clipPathUnits="userSpaceOnUse" id="clipPath49">
                <path d="M630 20 L630 260 L950 260 L950 20 Z"/>
            </clipPath>
            <clipPath clipPathUnits="userSpaceOnUse" id="clipPath50">
                <path d="M775 22 L807 22 L807 41 L775 41 L775 22 Z"/>
            </clipPath>
            <clipPath clipPathUnits="userSpaceOnUse" id="clipPath51">
                <path d="M766 40 L816 40 L816 59 L766 59 L766 40 Z"/>
            </clipPath>
            <clipPath clipPathUnits="userSpaceOnUse" id="clipPath52">
                <path d="M776 60 L806 60 L806 78 L776 78 L776 60 Z"/>
            </clipPath>
            <clipPath clipPathUnits="userSpaceOnUse" id="clipPath53">
                <path d="M635 77 L825 77 L825 97 L635 97 L635 77 Z"/>
            </clipPath>
            <clipPath clipPathUnits="userSpaceOnUse" id="clipPath54">
                <path d="M635 95 L779 95 L779 115 L635 115 L635 95 Z"/>
            </clipPath>
            <clipPath clipPathUnits="userSpaceOnUse" id="clipPath55">
                <path d="M630 58 L952 58 L952 126 L630 126 L630 58 Z"/>
            </clipPath>
            <clipPath clipPathUnits="userSpaceOnUse" id="clipPath56">
                <path d="M629 19 L952 19 L952 262 L629 262 L629 19 Z"/>
            </clipPath>
            <clipPath clipPathUnits="userSpaceOnUse" id="clipPath57">
                <path d="M761 137 L821 137 L821 155 L761 155 L761 137 Z"/>
            </clipPath>
            <clipPath clipPathUnits="userSpaceOnUse" id="clipPath58">
                <path d="M630 135 L952 135 L952 262 L630 262 L630 135 Z"/>
            </clipPath>
        </defs>
        <g font-size="14px" fill="url(#linearGradient1)" font-family="'Ubuntu Sans'" stroke-linejoin="round" stroke="url(#linearGradient1)" stroke-width="0" stroke-miterlimit="0">
            <rect x="208" width="323" height="451" y="10" clip-path="url(#clipPath1)" stroke="none"/>
        </g>
        <g stroke-miterlimit="0" stroke-width="0" font-weight="bold" stroke-linejoin="round">
            <text x="349" xml:space="preserve" y="26" clip-path="url(#clipPath2)" stroke="none">«SysD»</text>
            <text x="324" xml:space="preserve" y="44" clip-path="url(#clipPath3)" stroke="none">AIManagement</text>
            <text x="351" xml:space="preserve" font-size="10px" y="62" clip-path="url(#clipPath4)" stroke="none">«SysD»</text>
            <text x="214" font-size="14px" y="82" clip-path="url(#clipPath5)" font-family="'Ubuntu Sans'" stroke="none" font-weight="normal" xml:space="preserve">MicrosystemName=[] </text>
            <text x="214" font-size="14px" y="100" clip-path="url(#clipPath6)" font-family="'Ubuntu Sans'" stroke="none" font-weight="normal" xml:space="preserve">FunctionalProperties=[] </text>
            <text x="214" font-size="14px" y="118" clip-path="url(#clipPath7)" font-family="'Ubuntu Sans'" stroke="none" font-weight="normal" xml:space="preserve">SystemDatabase=MySQL </text>
            <text x="214" font-size="14px" y="136" clip-path="url(#clipPath8)" font-family="'Ubuntu Sans'" stroke="none" font-weight="normal" xml:space="preserve">MicrosystemBehaviour=[] </text>
            <text x="214" font-size="14px" y="154" clip-path="url(#clipPath9)" font-family="'Ubuntu Sans'" stroke="none" font-weight="normal" xml:space="preserve">isEncapsulated=false </text>
        </g>
        <g font-size="14px" stroke-width="2.1" font-family="'Ubuntu Sans'" stroke-linecap="butt">
            <line y2="50" fill="none" x1="208" clip-path="url(#clipPath10)" x2="531" y1="50"/>
            <line clip-path="url(#clipPath11)" fill="none" x1="208" x2="531" y1="49" y2="49" stroke-width="1.1"/>
        </g>
        <g font-size="10px" stroke-width="1.1" font-weight="bold" stroke-linecap="butt">
            <text x="343" xml:space="preserve" y="193" clip-path="url(#clipPath12)" stroke="none">attributes</text>
        </g>
        <g font-size="14px" stroke-width="2.1" font-family="'Ubuntu Sans'" stroke-linecap="butt">
            <line y2="181" fill="none" x1="208" clip-path="url(#clipPath13)" x2="531" y1="181"/>
            <text x="341" font-size="10px" y="335" clip-path="url(#clipPath14)" font-family="'Dialog'" stroke="none" font-weight="bold" xml:space="preserve">operations</text>
            <line y2="323" fill="none" x1="208" clip-path="url(#clipPath15)" x2="531" y1="323"/>
            <rect x="209" y="11" clip-path="url(#clipPath11)" fill="none" width="321" rx="0" ry="0" height="449"/>
            <rect x="521" y="69" clip-path="url(#clipPath16)" fill="url(#linearGradient2)" width="20" height="20" stroke="none"/>
            <rect x="522" y="70" clip-path="url(#clipPath17)" fill="none" width="18" rx="0" ry="0" height="18"/>
            <text x="546" font-size="12px" y="85" clip-path="url(#clipPath18)" font-family="'Dialog'" stroke="none" font-weight="bold" xml:space="preserve"> Manage</text>
            <rect x="198" y="68" clip-path="url(#clipPath19)" fill="url(#linearGradient3)" width="20" height="20" stroke="none"/>
            <rect x="199" y="69" clip-path="url(#clipPath20)" fill="none" width="18" rx="0" ry="0" height="18"/>
            <text x="10" font-size="12px" y="93" clip-path="url(#clipPath21)" font-family="'Dialog'" stroke="none" font-weight="bold" xml:space="preserve"> ServiceDiscovery</text>
            <rect x="198" y="109" clip-path="url(#clipPath22)" fill="url(#linearGradient4)" width="20" height="20" stroke="none"/>
            <rect x="199" y="110" clip-path="url(#clipPath23)" fill="none" width="18" rx="0" ry="0" height="18"/>
            <text x="10" font-size="12px" y="133" clip-path="url(#clipPath24)" font-family="'Dialog'" stroke="none" font-weight="bold" xml:space="preserve"> ServiceOrchestration</text>
            <rect x="198" y="150" clip-path="url(#clipPath25)" fill="url(#linearGradient5)" width="20" height="20" stroke="none"/>
            <rect x="199" y="151" clip-path="url(#clipPath26)" fill="none" width="18" rx="0" ry="0" height="18"/>
            <text x="10" font-size="12px" y="173" clip-path="url(#clipPath27)" font-family="'Dialog'" stroke="none" font-weight="bold" xml:space="preserve"> GetPublicKey</text>
            <rect x="198" y="190" clip-path="url(#clipPath28)" fill="url(#linearGradient6)" width="20" height="20" stroke="none"/>
            <rect x="199" y="191" clip-path="url(#clipPath29)" fill="none" width="18" rx="0" ry="0" height="18"/>
            <text x="10" font-size="12px" y="213" clip-path="url(#clipPath30)" font-family="'Dialog'" stroke="none" font-weight="bold" xml:space="preserve"> ConsumerAuthentication</text>
            <rect x="521" y="186" clip-path="url(#clipPath31)" fill="url(#linearGradient7)" width="20" height="20" stroke="none"/>
            <rect x="522" y="187" clip-path="url(#clipPath32)" fill="none" width="18" rx="0" ry="0" height="18"/>
            <text x="546" font-size="12px" y="202" clip-path="url(#clipPath33)" font-family="'Dialog'" stroke="none" font-weight="bold" xml:space="preserve"> SysMonitor</text>
            <rect x="198" y="271" clip-path="url(#clipPath34)" fill="url(#linearGradient8)" width="20" height="20" stroke="none"/>
            <rect x="199" y="272" clip-path="url(#clipPath35)" fill="none" width="18" rx="0" ry="0" height="18"/>
            <text x="10" font-size="12px" y="293" clip-path="url(#clipPath36)" font-family="'Dialog'" stroke="none" font-weight="bold" xml:space="preserve"> Light</text>
            <rect x="198" y="311" clip-path="url(#clipPath37)" fill="url(#linearGradient9)" width="20" height="20" stroke="none"/>
            <rect x="199" y="312" clip-path="url(#clipPath38)" fill="none" width="18" rx="0" ry="0" height="18"/>
            <text x="10" font-size="12px" y="333" clip-path="url(#clipPath39)" font-family="'Dialog'" stroke="none" font-weight="bold" xml:space="preserve"> Tracking</text>
            <rect x="198" y="351" clip-path="url(#clipPath40)" fill="url(#linearGradient10)" width="20" height="20" stroke="none"/>
            <rect x="199" y="352" clip-path="url(#clipPath41)" fill="none" width="18" rx="0" ry="0" height="18"/>
            <text x="10" font-size="12px" y="373" clip-path="url(#clipPath42)" font-family="'Dialog'" stroke="none" font-weight="bold" xml:space="preserve"> DataSet</text>
            <rect x="198" y="392" clip-path="url(#clipPath43)" fill="url(#linearGradient11)" width="20" height="20" stroke="none"/>
            <rect x="199" y="393" clip-path="url(#clipPath44)" fill="none" width="18" rx="0" ry="0" height="18"/>
            <text x="10" font-size="12px" y="413" clip-path="url(#clipPath45)" font-family="'Dialog'" stroke="none" font-weight="bold" xml:space="preserve"> Training</text>
            <rect x="198" y="432" clip-path="url(#clipPath46)" fill="url(#linearGradient12)" width="20" height="20" stroke="none"/>
            <rect x="199" y="433" clip-path="url(#clipPath47)" fill="none" width="18" rx="0" ry="0" height="18"/>
            <text x="10" font-size="12px" y="453" clip-path="url(#clipPath48)" font-family="'Dialog'" stroke="none" font-weight="bold" xml:space="preserve"> Preprocessing</text>
            <rect x="630" y="20" clip-path="url(#clipPath49)" fill="url(#linearGradient13)" width="321" height="241" stroke="none"/>
            <text x="776" font-size="12px" y="36" clip-path="url(#clipPath50)" font-family="'Dialog'" stroke="none" font-weight="bold" xml:space="preserve">«SD»</text>
            <text x="767" font-size="12px" y="54" clip-path="url(#clipPath51)" font-family="'Dialog'" stroke="none" font-weight="bold" xml:space="preserve">Manage</text>
            <text x="777" font-size="10px" y="72" clip-path="url(#clipPath52)" font-family="'Dialog'" stroke="none" font-weight="bold" xml:space="preserve">«SD»</text>
            <text x="636" xml:space="preserve" y="92" clip-path="url(#clipPath53)" stroke="none">MicroserviceName=Manage </text>
            <text x="636" xml:space="preserve" y="110" clip-path="url(#clipPath54)" stroke="none">isEncapsulated=false </text>
            <line y2="60" fill="none" x1="630" clip-path="url(#clipPath55)" x2="951" y1="60"/>
            <line clip-path="url(#clipPath56)" fill="none" x1="630" x2="951" y1="59" y2="59" stroke-width="1.1"/>
        </g>
        <g font-size="10px" stroke-width="1.1" font-weight="bold" stroke-linecap="butt">
            <text x="762" xml:space="preserve" y="149" clip-path="url(#clipPath57)" stroke="none">operations</text>
        </g>
        <g font-size="14px" stroke-width="2.1" font-family="'Ubuntu Sans'" stroke-linecap="butt">
            <line y2="137" fill="none" x1="630" clip-path="url(#clipPath58)" x2="951" y1="137"/>
            <rect x="631" y="21" clip-path="url(#clipPath56)" fill="none" width="319" rx="0" ry="0" height="239"/>
        </g>
    </g>
</svg>
