<?xml version="1.0" encoding="UTF-8"?><svg xmlns="http://www.w3.org/2000/svg" xmlns:xlink="http://www.w3.org/1999/xlink" stroke-dasharray="none" shape-rendering="auto" font-family="'Dialog'" width="1081" text-rendering="auto" fill-opacity="1" contentScriptType="text/ecmascript" color-interpolation="auto" color-rendering="auto" preserveAspectRatio="xMidYMid meet" font-size="12px" viewBox="0 0 1081 941" fill="black" stroke="black" image-rendering="auto" stroke-miterlimit="10" zoomAndPan="magnify" version="1.0" stroke-linecap="square" stroke-linejoin="miter" contentStyleType="text/css" font-style="normal" height="941" stroke-width="1" stroke-dashoffset="0" font-weight="normal" stroke-opacity="1">
    <!--Generated by the Batik Graphics2D SVG Generator-->
    <defs id="genericDefs"/>
    <g>
        <defs id="defs1">
            <linearGradient x1="230" x2="230" y1="10" gradientUnits="userSpaceOnUse" y2="386" xlink:type="simple" xlink:actuate="onLoad" id="linearGradient1" xlink:show="other" spreadMethod="pad">
                <stop stop-opacity="1" stop-color="rgb(255,128,0)" offset="0%"/>
                <stop stop-opacity="1" stop-color="rgb(255,128,0)" offset="100%"/>
            </linearGradient>
            <linearGradient x1="220" x2="220" y1="60" gradientUnits="userSpaceOnUse" y2="80" xlink:type="simple" xlink:actuate="onLoad" id="linearGradient2" xlink:show="other" spreadMethod="pad">
                <stop stop-opacity="1" stop-color="rgb(155,199,204)" offset="0%"/>
                <stop stop-opacity="1" stop-color="rgb(155,199,204)" offset="100%"/>
            </linearGradient>
            <linearGradient x1="220" x2="220" y1="100" gradientUnits="userSpaceOnUse" y2="120" xlink:type="simple" xlink:actuate="onLoad" id="linearGradient3" xlink:show="other" spreadMethod="pad">
                <stop stop-opacity="1" stop-color="rgb(155,199,204)" offset="0%"/>
                <stop stop-opacity="1" stop-color="rgb(155,199,204)" offset="100%"/>
            </linearGradient>
            <linearGradient x1="220" x2="220" y1="140" gradientUnits="userSpaceOnUse" y2="160" xlink:type="simple" xlink:actuate="onLoad" id="linearGradient4" xlink:show="other" spreadMethod="pad">
                <stop stop-opacity="1" stop-color="rgb(155,199,204)" offset="0%"/>
                <stop stop-opacity="1" stop-color="rgb(155,199,204)" offset="100%"/>
            </linearGradient>
            <linearGradient x1="220" x2="220" y1="180" gradientUnits="userSpaceOnUse" y2="200" xlink:type="simple" xlink:actuate="onLoad" id="linearGradient5" xlink:show="other" spreadMethod="pad">
                <stop stop-opacity="1" stop-color="rgb(155,199,204)" offset="0%"/>
                <stop stop-opacity="1" stop-color="rgb(155,199,204)" offset="100%"/>
            </linearGradient>
            <linearGradient x1="538" x2="538" y1="180" gradientUnits="userSpaceOnUse" y2="200" xlink:type="simple" xlink:actuate="onLoad" id="linearGradient6" xlink:show="other" spreadMethod="pad">
                <stop stop-opacity="1" stop-color="rgb(155,199,204)" offset="0%"/>
                <stop stop-opacity="1" stop-color="rgb(155,199,204)" offset="100%"/>
            </linearGradient>
            <linearGradient x1="538" x2="538" y1="61" gradientUnits="userSpaceOnUse" y2="81" xlink:type="simple" xlink:actuate="onLoad" id="linearGradient7" xlink:show="other" spreadMethod="pad">
                <stop stop-opacity="1" stop-color="rgb(155,199,204)" offset="0%"/>
                <stop stop-opacity="1" stop-color="rgb(155,199,204)" offset="100%"/>
            </linearGradient>
            <linearGradient x1="790" x2="790" y1="10" gradientUnits="userSpaceOnUse" y2="271" xlink:type="simple" xlink:actuate="onLoad" id="linearGradient8" xlink:show="other" spreadMethod="pad">
                <stop stop-opacity="1" stop-color="rgb(155,199,204)" offset="0%"/>
                <stop stop-opacity="1" stop-color="rgb(155,199,204)" offset="100%"/>
            </linearGradient>
            <linearGradient x1="230" x2="230" y1="490" gradientUnits="userSpaceOnUse" y2="930" xlink:type="simple" xlink:actuate="onLoad" id="linearGradient9" xlink:show="other" spreadMethod="pad">
                <stop stop-opacity="1" stop-color="rgb(255,128,0)" offset="0%"/>
                <stop stop-opacity="1" stop-color="rgb(255,128,0)" offset="100%"/>
            </linearGradient>
            <linearGradient x1="220" x2="220" y1="540" gradientUnits="userSpaceOnUse" y2="560" xlink:type="simple" xlink:actuate="onLoad" id="linearGradient10" xlink:show="other" spreadMethod="pad">
                <stop stop-opacity="1" stop-color="rgb(155,199,204)" offset="0%"/>
                <stop stop-opacity="1" stop-color="rgb(155,199,204)" offset="100%"/>
            </linearGradient>
            <linearGradient x1="220" x2="220" y1="580" gradientUnits="userSpaceOnUse" y2="600" xlink:type="simple" xlink:actuate="onLoad" id="linearGradient11" xlink:show="other" spreadMethod="pad">
                <stop stop-opacity="1" stop-color="rgb(155,199,204)" offset="0%"/>
                <stop stop-opacity="1" stop-color="rgb(155,199,204)" offset="100%"/>
            </linearGradient>
            <linearGradient x1="220" x2="220" y1="620" gradientUnits="userSpaceOnUse" y2="640" xlink:type="simple" xlink:actuate="onLoad" id="linearGradient12" xlink:show="other" spreadMethod="pad">
                <stop stop-opacity="1" stop-color="rgb(155,199,204)" offset="0%"/>
                <stop stop-opacity="1" stop-color="rgb(155,199,204)" offset="100%"/>
            </linearGradient>
            <linearGradient x1="220" x2="220" y1="660" gradientUnits="userSpaceOnUse" y2="680" xlink:type="simple" xlink:actuate="onLoad" id="linearGradient13" xlink:show="other" spreadMethod="pad">
                <stop stop-opacity="1" stop-color="rgb(155,199,204)" offset="0%"/>
                <stop stop-opacity="1" stop-color="rgb(155,199,204)" offset="100%"/>
            </linearGradient>
            <linearGradient x1="541" x2="541" y1="659" gradientUnits="userSpaceOnUse" y2="679" xlink:type="simple" xlink:actuate="onLoad" id="linearGradient14" xlink:show="other" spreadMethod="pad">
                <stop stop-opacity="1" stop-color="rgb(155,199,204)" offset="0%"/>
                <stop stop-opacity="1" stop-color="rgb(155,199,204)" offset="100%"/>
            </linearGradient>
            <linearGradient x1="541" x2="541" y1="538" gradientUnits="userSpaceOnUse" y2="558" xlink:type="simple" xlink:actuate="onLoad" id="linearGradient15" xlink:show="other" spreadMethod="pad">
                <stop stop-opacity="1" stop-color="rgb(155,199,204)" offset="0%"/>
                <stop stop-opacity="1" stop-color="rgb(155,199,204)" offset="100%"/>
            </linearGradient>
            <linearGradient x1="790" x2="790" y1="490" gradientUnits="userSpaceOnUse" y2="931" xlink:type="simple" xlink:actuate="onLoad" id="linearGradient16" xlink:show="other" spreadMethod="pad">
                <stop stop-opacity="1" stop-color="rgb(155,199,204)" offset="0%"/>
                <stop stop-opacity="1" stop-color="rgb(155,199,204)" offset="100%"/>
            </linearGradient>
            <clipPath clipPathUnits="userSpaceOnUse" id="clipPath1">
                <path d="M230 10 L230 385 L547 385 L547 10 Z"/>
            </clipPath>
            <clipPath clipPathUnits="userSpaceOnUse" id="clipPath2">
                <path d="M367 12 L412 12 L412 31 L367 31 L367 12 Z"/>
            </clipPath>
            <clipPath clipPathUnits="userSpaceOnUse" id="clipPath3">
                <path d="M346 30 L433 30 L433 49 L346 49 L346 30 Z"/>
            </clipPath>
            <clipPath clipPathUnits="userSpaceOnUse" id="clipPath4">
                <path d="M369 50 L410 50 L410 68 L369 68 L369 50 Z"/>
            </clipPath>
            <clipPath clipPathUnits="userSpaceOnUse" id="clipPath5">
                <path d="M235 67 L475 67 L475 87 L235 87 L235 67 Z"/>
            </clipPath>
            <clipPath clipPathUnits="userSpaceOnUse" id="clipPath6">
                <path d="M235 85 L399 85 L399 105 L235 105 L235 85 Z"/>
            </clipPath>
            <clipPath clipPathUnits="userSpaceOnUse" id="clipPath7">
                <path d="M235 103 L404 103 L404 123 L235 123 L235 103 Z"/>
            </clipPath>
            <clipPath clipPathUnits="userSpaceOnUse" id="clipPath8">
                <path d="M235 121 L411 121 L411 141 L235 141 L235 121 Z"/>
            </clipPath>
            <clipPath clipPathUnits="userSpaceOnUse" id="clipPath9">
                <path d="M235 139 L379 139 L379 159 L235 159 L235 139 Z"/>
            </clipPath>
            <clipPath clipPathUnits="userSpaceOnUse" id="clipPath10">
                <path d="M230 48 L549 48 L549 170 L230 170 L230 48 Z"/>
            </clipPath>
            <clipPath clipPathUnits="userSpaceOnUse" id="clipPath11">
                <path d="M229 9 L549 9 L549 387 L229 387 L229 9 Z"/>
            </clipPath>
            <clipPath clipPathUnits="userSpaceOnUse" id="clipPath12">
                <path d="M362 181 L418 181 L418 199 L362 199 L362 181 Z"/>
            </clipPath>
            <clipPath clipPathUnits="userSpaceOnUse" id="clipPath13">
                <path d="M235 198 L409 198 L409 217 L235 217 L235 198 Z"/>
            </clipPath>
            <clipPath clipPathUnits="userSpaceOnUse" id="clipPath14">
                <path d="M235 215 L434 215 L434 234 L235 234 L235 215 Z"/>
            </clipPath>
            <clipPath clipPathUnits="userSpaceOnUse" id="clipPath15">
                <path d="M235 232 L389 232 L389 251 L235 251 L235 232 Z"/>
            </clipPath>
            <clipPath clipPathUnits="userSpaceOnUse" id="clipPath16">
                <path d="M235 249 L459 249 L459 268 L235 268 L235 249 Z"/>
            </clipPath>
            <clipPath clipPathUnits="userSpaceOnUse" id="clipPath17">
                <path d="M235 266 L375 266 L375 285 L235 285 L235 266 Z"/>
            </clipPath>
            <clipPath clipPathUnits="userSpaceOnUse" id="clipPath18">
                <path d="M235 283 L359 283 L359 302 L235 302 L235 283 Z"/>
            </clipPath>
            <clipPath clipPathUnits="userSpaceOnUse" id="clipPath19">
                <path d="M230 179 L549 179 L549 349 L230 349 L230 179 Z"/>
            </clipPath>
            <clipPath clipPathUnits="userSpaceOnUse" id="clipPath20">
                <path d="M360 350 L420 350 L420 368 L360 368 L360 350 Z"/>
            </clipPath>
            <clipPath clipPathUnits="userSpaceOnUse" id="clipPath21">
                <path d="M230 348 L549 348 L549 387 L230 387 L230 348 Z"/>
            </clipPath>
            <clipPath clipPathUnits="userSpaceOnUse" id="clipPath22">
                <path d="M220 60 L220 79 L239 79 L239 60 Z"/>
            </clipPath>
            <clipPath clipPathUnits="userSpaceOnUse" id="clipPath23">
                <path d="M219 59 L241 59 L241 81 L219 81 L219 59 Z"/>
            </clipPath>
            <clipPath clipPathUnits="userSpaceOnUse" id="clipPath24">
                <path d="M29 69 L135 69 L135 88 L29 88 L29 69 Z"/>
            </clipPath>
            <clipPath clipPathUnits="userSpaceOnUse" id="clipPath25">
                <path d="M220 100 L220 119 L239 119 L239 100 Z"/>
            </clipPath>
            <clipPath clipPathUnits="userSpaceOnUse" id="clipPath26">
                <path d="M219 99 L241 99 L241 121 L219 121 L219 99 Z"/>
            </clipPath>
            <clipPath clipPathUnits="userSpaceOnUse" id="clipPath27">
                <path d="M29 109 L160 109 L160 128 L29 128 L29 109 Z"/>
            </clipPath>
            <clipPath clipPathUnits="userSpaceOnUse" id="clipPath28">
                <path d="M220 140 L220 159 L239 159 L239 140 Z"/>
            </clipPath>
            <clipPath clipPathUnits="userSpaceOnUse" id="clipPath29">
                <path d="M219 139 L241 139 L241 161 L219 161 L219 139 Z"/>
            </clipPath>
            <clipPath clipPathUnits="userSpaceOnUse" id="clipPath30">
                <path d="M29 149 L115 149 L115 168 L29 168 L29 149 Z"/>
            </clipPath>
            <clipPath clipPathUnits="userSpaceOnUse" id="clipPath31">
                <path d="M220 180 L220 199 L239 199 L239 180 Z"/>
            </clipPath>
            <clipPath clipPathUnits="userSpaceOnUse" id="clipPath32">
                <path d="M219 179 L241 179 L241 201 L219 201 L219 179 Z"/>
            </clipPath>
            <clipPath clipPathUnits="userSpaceOnUse" id="clipPath33">
                <path d="M29 189 L185 189 L185 208 L29 208 L29 189 Z"/>
            </clipPath>
            <clipPath clipPathUnits="userSpaceOnUse" id="clipPath34">
                <path d="M538 180 L538 199 L557 199 L557 180 Z"/>
            </clipPath>
            <clipPath clipPathUnits="userSpaceOnUse" id="clipPath35">
                <path d="M537 179 L559 179 L559 201 L537 201 L537 179 Z"/>
            </clipPath>
            <clipPath clipPathUnits="userSpaceOnUse" id="clipPath36">
                <path d="M562 182 L634 182 L634 201 L562 201 L562 182 Z"/>
            </clipPath>
            <clipPath clipPathUnits="userSpaceOnUse" id="clipPath37">
                <path d="M538 61 L538 80 L557 80 L557 61 Z"/>
            </clipPath>
            <clipPath clipPathUnits="userSpaceOnUse" id="clipPath38">
                <path d="M537 60 L559 60 L559 82 L537 82 L537 60 Z"/>
            </clipPath>
            <clipPath clipPathUnits="userSpaceOnUse" id="clipPath39">
                <path d="M562 63 L618 63 L618 82 L562 82 L562 63 Z"/>
            </clipPath>
            <clipPath clipPathUnits="userSpaceOnUse" id="clipPath40">
                <path d="M790 10 L790 270 L1070 270 L1070 10 Z"/>
            </clipPath>
            <clipPath clipPathUnits="userSpaceOnUse" id="clipPath41">
                <path d="M915 12 L947 12 L947 31 L915 31 L915 12 Z"/>
            </clipPath>
            <clipPath clipPathUnits="userSpaceOnUse" id="clipPath42">
                <path d="M905 30 L958 30 L958 49 L905 49 L905 30 Z"/>
            </clipPath>
            <clipPath clipPathUnits="userSpaceOnUse" id="clipPath43">
                <path d="M916 50 L946 50 L946 68 L916 68 L916 50 Z"/>
            </clipPath>
            <clipPath clipPathUnits="userSpaceOnUse" id="clipPath44">
                <path d="M795 67 L988 67 L988 87 L795 87 L795 67 Z"/>
            </clipPath>
            <clipPath clipPathUnits="userSpaceOnUse" id="clipPath45">
                <path d="M795 85 L939 85 L939 105 L795 105 L795 85 Z"/>
            </clipPath>
            <clipPath clipPathUnits="userSpaceOnUse" id="clipPath46">
                <path d="M790 48 L1072 48 L1072 116 L790 116 L790 48 Z"/>
            </clipPath>
            <clipPath clipPathUnits="userSpaceOnUse" id="clipPath47">
                <path d="M789 9 L1072 9 L1072 272 L789 272 L789 9 Z"/>
            </clipPath>
            <clipPath clipPathUnits="userSpaceOnUse" id="clipPath48">
                <path d="M901 127 L961 127 L961 145 L901 145 L901 127 Z"/>
            </clipPath>
            <clipPath clipPathUnits="userSpaceOnUse" id="clipPath49">
                <path d="M795 144 L885 144 L885 163 L795 163 L795 144 Z"/>
            </clipPath>
            <clipPath clipPathUnits="userSpaceOnUse" id="clipPath50">
                <path d="M795 161 L906 161 L906 180 L795 180 L795 161 Z"/>
            </clipPath>
            <clipPath clipPathUnits="userSpaceOnUse" id="clipPath51">
                <path d="M795 178 L934 178 L934 197 L795 197 L795 178 Z"/>
            </clipPath>
            <clipPath clipPathUnits="userSpaceOnUse" id="clipPath52">
                <path d="M790 125 L1072 125 L1072 272 L790 272 L790 125 Z"/>
            </clipPath>
            <clipPath clipPathUnits="userSpaceOnUse" id="clipPath53">
                <path d="M230 490 L230 929 L550 929 L550 490 Z"/>
            </clipPath>
            <clipPath clipPathUnits="userSpaceOnUse" id="clipPath54">
                <path d="M364 492 L418 492 L418 511 L364 511 L364 492 Z"/>
            </clipPath>
            <clipPath clipPathUnits="userSpaceOnUse" id="clipPath55">
                <path d="M292 510 L490 510 L490 529 L292 529 L292 510 Z"/>
            </clipPath>
            <clipPath clipPathUnits="userSpaceOnUse" id="clipPath56">
                <path d="M367 530 L416 530 L416 548 L367 548 L367 530 Z"/>
            </clipPath>
            <clipPath clipPathUnits="userSpaceOnUse" id="clipPath57">
                <path d="M235 547 L394 547 L394 567 L235 567 L235 547 Z"/>
            </clipPath>
            <clipPath clipPathUnits="userSpaceOnUse" id="clipPath58">
                <path d="M235 565 L519 565 L519 585 L235 585 L235 565 Z"/>
            </clipPath>
            <clipPath clipPathUnits="userSpaceOnUse" id="clipPath59">
                <path d="M235 583 L383 583 L383 603 L235 603 L235 583 Z"/>
            </clipPath>
            <clipPath clipPathUnits="userSpaceOnUse" id="clipPath60">
                <path d="M235 601 L399 601 L399 621 L235 621 L235 601 Z"/>
            </clipPath>
            <clipPath clipPathUnits="userSpaceOnUse" id="clipPath61">
                <path d="M235 619 L404 619 L404 639 L235 639 L235 619 Z"/>
            </clipPath>
            <clipPath clipPathUnits="userSpaceOnUse" id="clipPath62">
                <path d="M235 637 L411 637 L411 657 L235 657 L235 637 Z"/>
            </clipPath>
            <clipPath clipPathUnits="userSpaceOnUse" id="clipPath63">
                <path d="M235 655 L379 655 L379 675 L235 675 L235 655 Z"/>
            </clipPath>
            <clipPath clipPathUnits="userSpaceOnUse" id="clipPath64">
                <path d="M230 528 L552 528 L552 704 L230 704 L230 528 Z"/>
            </clipPath>
            <clipPath clipPathUnits="userSpaceOnUse" id="clipPath65">
                <path d="M229 489 L552 489 L552 931 L229 931 L229 489 Z"/>
            </clipPath>
            <clipPath clipPathUnits="userSpaceOnUse" id="clipPath66">
                <path d="M363 715 L419 715 L419 733 L363 733 L363 715 Z"/>
            </clipPath>
            <clipPath clipPathUnits="userSpaceOnUse" id="clipPath67">
                <path d="M235 732 L455 732 L455 751 L235 751 L235 732 Z"/>
            </clipPath>
            <clipPath clipPathUnits="userSpaceOnUse" id="clipPath68">
                <path d="M235 749 L480 749 L480 768 L235 768 L235 749 Z"/>
            </clipPath>
            <clipPath clipPathUnits="userSpaceOnUse" id="clipPath69">
                <path d="M235 766 L435 766 L435 785 L235 785 L235 766 Z"/>
            </clipPath>
            <clipPath clipPathUnits="userSpaceOnUse" id="clipPath70">
                <path d="M235 783 L505 783 L505 802 L235 802 L235 783 Z"/>
            </clipPath>
            <clipPath clipPathUnits="userSpaceOnUse" id="clipPath71">
                <path d="M235 800 L424 800 L424 819 L235 819 L235 800 Z"/>
            </clipPath>
            <clipPath clipPathUnits="userSpaceOnUse" id="clipPath72">
                <path d="M235 817 L439 817 L439 836 L235 836 L235 817 Z"/>
            </clipPath>
            <clipPath clipPathUnits="userSpaceOnUse" id="clipPath73">
                <path d="M230 713 L552 713 L552 891 L230 891 L230 713 Z"/>
            </clipPath>
            <clipPath clipPathUnits="userSpaceOnUse" id="clipPath74">
                <path d="M361 892 L421 892 L421 910 L361 910 L361 892 Z"/>
            </clipPath>
            <clipPath clipPathUnits="userSpaceOnUse" id="clipPath75">
                <path d="M230 890 L552 890 L552 931 L230 931 L230 890 Z"/>
            </clipPath>
            <clipPath clipPathUnits="userSpaceOnUse" id="clipPath76">
                <path d="M220 540 L220 559 L239 559 L239 540 Z"/>
            </clipPath>
            <clipPath clipPathUnits="userSpaceOnUse" id="clipPath77">
                <path d="M219 539 L241 539 L241 561 L219 561 L219 539 Z"/>
            </clipPath>
            <clipPath clipPathUnits="userSpaceOnUse" id="clipPath78">
                <path d="M9 549 L150 549 L150 568 L9 568 L9 549 Z"/>
            </clipPath>
            <clipPath clipPathUnits="userSpaceOnUse" id="clipPath79">
                <path d="M220 580 L220 599 L239 599 L239 580 Z"/>
            </clipPath>
            <clipPath clipPathUnits="userSpaceOnUse" id="clipPath80">
                <path d="M219 579 L241 579 L241 601 L219 601 L219 579 Z"/>
            </clipPath>
            <clipPath clipPathUnits="userSpaceOnUse" id="clipPath81">
                <path d="M9 589 L175 589 L175 608 L9 608 L9 589 Z"/>
            </clipPath>
            <clipPath clipPathUnits="userSpaceOnUse" id="clipPath82">
                <path d="M220 620 L220 639 L239 639 L239 620 Z"/>
            </clipPath>
            <clipPath clipPathUnits="userSpaceOnUse" id="clipPath83">
                <path d="M219 619 L241 619 L241 641 L219 641 L219 619 Z"/>
            </clipPath>
            <clipPath clipPathUnits="userSpaceOnUse" id="clipPath84">
                <path d="M9 629 L130 629 L130 648 L9 648 L9 629 Z"/>
            </clipPath>
            <clipPath clipPathUnits="userSpaceOnUse" id="clipPath85">
                <path d="M220 660 L220 679 L239 679 L239 660 Z"/>
            </clipPath>
            <clipPath clipPathUnits="userSpaceOnUse" id="clipPath86">
                <path d="M219 659 L241 659 L241 681 L219 681 L219 659 Z"/>
            </clipPath>
            <clipPath clipPathUnits="userSpaceOnUse" id="clipPath87">
                <path d="M9 669 L200 669 L200 688 L9 688 L9 669 Z"/>
            </clipPath>
            <clipPath clipPathUnits="userSpaceOnUse" id="clipPath88">
                <path d="M541 659 L541 678 L560 678 L560 659 Z"/>
            </clipPath>
            <clipPath clipPathUnits="userSpaceOnUse" id="clipPath89">
                <path d="M540 658 L562 658 L562 680 L540 680 L540 658 Z"/>
            </clipPath>
            <clipPath clipPathUnits="userSpaceOnUse" id="clipPath90">
                <path d="M565 661 L675 661 L675 680 L565 680 L565 661 Z"/>
            </clipPath>
            <clipPath clipPathUnits="userSpaceOnUse" id="clipPath91">
                <path d="M541 538 L541 557 L560 557 L560 538 Z"/>
            </clipPath>
            <clipPath clipPathUnits="userSpaceOnUse" id="clipPath92">
                <path d="M540 537 L562 537 L562 559 L540 559 L540 537 Z"/>
            </clipPath>
            <clipPath clipPathUnits="userSpaceOnUse" id="clipPath93">
                <path d="M565 540 L690 540 L690 559 L565 559 L565 540 Z"/>
            </clipPath>
            <clipPath clipPathUnits="userSpaceOnUse" id="clipPath94">
                <path d="M790 490 L790 930 L1070 930 L1070 490 Z"/>
            </clipPath>
            <clipPath clipPathUnits="userSpaceOnUse" id="clipPath95">
                <path d="M912 492 L951 492 L951 511 L912 511 L912 492 Z"/>
            </clipPath>
            <clipPath clipPathUnits="userSpaceOnUse" id="clipPath96">
                <path d="M870 510 L992 510 L992 529 L870 529 L870 510 Z"/>
            </clipPath>
            <clipPath clipPathUnits="userSpaceOnUse" id="clipPath97">
                <path d="M913 530 L949 530 L949 548 L913 548 L913 530 Z"/>
            </clipPath>
            <clipPath clipPathUnits="userSpaceOnUse" id="clipPath98">
                <path d="M795 547 L846 547 L846 567 L795 567 L795 547 Z"/>
            </clipPath>
            <clipPath clipPathUnits="userSpaceOnUse" id="clipPath99">
                <path d="M795 565 L938 565 L938 585 L795 585 L795 565 Z"/>
            </clipPath>
            <clipPath clipPathUnits="userSpaceOnUse" id="clipPath100">
                <path d="M795 583 L905 583 L905 603 L795 603 L795 583 Z"/>
            </clipPath>
            <clipPath clipPathUnits="userSpaceOnUse" id="clipPath101">
                <path d="M795 601 L946 601 L946 621 L795 621 L795 601 Z"/>
            </clipPath>
            <clipPath clipPathUnits="userSpaceOnUse" id="clipPath102">
                <path d="M795 619 L934 619 L934 639 L795 639 L795 619 Z"/>
            </clipPath>
            <clipPath clipPathUnits="userSpaceOnUse" id="clipPath103">
                <path d="M795 637 L1042 637 L1042 657 L795 657 L795 637 Z"/>
            </clipPath>
            <clipPath clipPathUnits="userSpaceOnUse" id="clipPath104">
                <path d="M795 655 L961 655 L961 675 L795 675 L795 655 Z"/>
            </clipPath>
            <clipPath clipPathUnits="userSpaceOnUse" id="clipPath105">
                <path d="M795 673 L954 673 L954 693 L795 693 L795 673 Z"/>
            </clipPath>
            <clipPath clipPathUnits="userSpaceOnUse" id="clipPath106">
                <path d="M795 691 L922 691 L922 711 L795 711 L795 691 Z"/>
            </clipPath>
            <clipPath clipPathUnits="userSpaceOnUse" id="clipPath107">
                <path d="M795 709 L988 709 L988 729 L795 729 L795 709 Z"/>
            </clipPath>
            <clipPath clipPathUnits="userSpaceOnUse" id="clipPath108">
                <path d="M795 727 L939 727 L939 747 L795 747 L795 727 Z"/>
            </clipPath>
            <clipPath clipPathUnits="userSpaceOnUse" id="clipPath109">
                <path d="M790 528 L1072 528 L1072 776 L790 776 L790 528 Z"/>
            </clipPath>
            <clipPath clipPathUnits="userSpaceOnUse" id="clipPath110">
                <path d="M789 489 L1072 489 L1072 932 L789 932 L789 489 Z"/>
            </clipPath>
            <clipPath clipPathUnits="userSpaceOnUse" id="clipPath111">
                <path d="M901 787 L961 787 L961 805 L901 805 L901 787 Z"/>
            </clipPath>
            <clipPath clipPathUnits="userSpaceOnUse" id="clipPath112">
                <path d="M795 804 L885 804 L885 823 L795 823 L795 804 Z"/>
            </clipPath>
            <clipPath clipPathUnits="userSpaceOnUse" id="clipPath113">
                <path d="M795 821 L906 821 L906 840 L795 840 L795 821 Z"/>
            </clipPath>
            <clipPath clipPathUnits="userSpaceOnUse" id="clipPath114">
                <path d="M795 838 L934 838 L934 857 L795 857 L795 838 Z"/>
            </clipPath>
            <clipPath clipPathUnits="userSpaceOnUse" id="clipPath115">
                <path d="M790 785 L1072 785 L1072 932 L790 932 L790 785 Z"/>
            </clipPath>
            <clipPath clipPathUnits="userSpaceOnUse" id="clipPath116">
                <path d="M-1 -1 L1082 -1 L1082 942 L-1 942 L-1 -1 Z"/>
            </clipPath>
            <clipPath clipPathUnits="userSpaceOnUse" id="clipPath117">
                <path d="M381 385 L400 385 L400 398 L381 398 L381 385 Z"/>
            </clipPath>
            <clipPath clipPathUnits="userSpaceOnUse" id="clipPath118">
                <path d="M921 270 L940 270 L940 283 L921 283 L921 270 Z"/>
            </clipPath>
        </defs>
        <g font-size="14px" fill="url(#linearGradient1)" font-family="'Ubuntu Sans'" stroke-linejoin="round" stroke="url(#linearGradient1)" stroke-width="0" stroke-miterlimit="0">
            <rect x="230" width="318" height="376" y="10" clip-path="url(#clipPath1)" stroke="none"/>
        </g>
        <g stroke-miterlimit="0" stroke-width="0" font-weight="bold" stroke-linejoin="round">
            <text x="368" xml:space="preserve" y="26" clip-path="url(#clipPath2)" stroke="none">«SysD»</text>
            <text x="347" xml:space="preserve" y="44" clip-path="url(#clipPath3)" stroke="none">MovingSensor</text>
            <text x="370" xml:space="preserve" font-size="10px" y="62" clip-path="url(#clipPath4)" stroke="none">«SysD»</text>
            <text x="236" font-size="14px" y="82" clip-path="url(#clipPath5)" font-family="'Ubuntu Sans'" stroke="none" font-weight="normal" xml:space="preserve">MicrosystemName=[MovingSensor] </text>
            <text x="236" font-size="14px" y="100" clip-path="url(#clipPath6)" font-family="'Ubuntu Sans'" stroke="none" font-weight="normal" xml:space="preserve">FunctionalProperties=[] </text>
            <text x="236" font-size="14px" y="118" clip-path="url(#clipPath7)" font-family="'Ubuntu Sans'" stroke="none" font-weight="normal" xml:space="preserve">SystemDatabase=MySQL </text>
            <text x="236" font-size="14px" y="136" clip-path="url(#clipPath8)" font-family="'Ubuntu Sans'" stroke="none" font-weight="normal" xml:space="preserve">MicrosystemBehaviour=[] </text>
            <text x="236" font-size="14px" y="154" clip-path="url(#clipPath9)" font-family="'Ubuntu Sans'" stroke="none" font-weight="normal" xml:space="preserve">isEncapsulated=false </text>
        </g>
        <g font-size="14px" stroke-width="2.1" font-family="'Ubuntu Sans'" stroke-linecap="butt">
            <line y2="50" fill="none" x1="230" clip-path="url(#clipPath10)" x2="548" y1="50"/>
            <line clip-path="url(#clipPath11)" fill="none" x1="230" x2="548" y1="49" y2="49" stroke-width="1.1"/>
        </g>
        <g font-size="10px" stroke-width="1.1" font-weight="bold" stroke-linecap="butt">
            <text x="363" xml:space="preserve" y="193" clip-path="url(#clipPath12)" stroke="none">attributes</text>
            <text x="236" xml:space="preserve" font-size="12px" y="212" clip-path="url(#clipPath13)" stroke="none">«FullPort»   ServiceDiscovery</text>
            <text x="236" xml:space="preserve" font-size="12px" y="229" clip-path="url(#clipPath14)" stroke="none">«FullPort»   ServiceOrchestration</text>
            <text x="236" xml:space="preserve" font-size="12px" y="246" clip-path="url(#clipPath15)" stroke="none">«FullPort»   GetPublicKey</text>
            <text x="236" xml:space="preserve" font-size="12px" y="263" clip-path="url(#clipPath16)" stroke="none">«FullPort»   ConsumerAuthentication</text>
            <text x="236" xml:space="preserve" font-size="12px" y="280" clip-path="url(#clipPath17)" stroke="none">«FullPort»   SysMonitor</text>
            <text x="236" xml:space="preserve" font-size="12px" y="297" clip-path="url(#clipPath18)" stroke="none">«FullPort»   Tracking</text>
        </g>
        <g font-size="14px" stroke-width="2.1" font-family="'Ubuntu Sans'" stroke-linecap="butt">
            <line y2="181" fill="none" x1="230" clip-path="url(#clipPath19)" x2="548" y1="181"/>
            <text x="361" font-size="10px" y="362" clip-path="url(#clipPath20)" font-family="'Dialog'" stroke="none" font-weight="bold" xml:space="preserve">operations</text>
            <line y2="350" fill="none" x1="230" clip-path="url(#clipPath21)" x2="548" y1="350"/>
            <rect x="231" y="11" clip-path="url(#clipPath11)" fill="none" width="316" rx="0" ry="0" height="374"/>
            <rect x="220" y="60" clip-path="url(#clipPath22)" fill="url(#linearGradient2)" width="20" height="20" stroke="none"/>
            <rect x="221" y="61" clip-path="url(#clipPath23)" fill="none" width="18" rx="0" ry="0" height="18"/>
            <text x="30" font-size="12px" y="83" clip-path="url(#clipPath24)" font-family="'Dialog'" stroke="none" font-weight="bold" xml:space="preserve"> ServiceDiscovery</text>
            <rect x="220" y="100" clip-path="url(#clipPath25)" fill="url(#linearGradient3)" width="20" height="20" stroke="none"/>
            <rect x="221" y="101" clip-path="url(#clipPath26)" fill="none" width="18" rx="0" ry="0" height="18"/>
            <text x="30" font-size="12px" y="123" clip-path="url(#clipPath27)" font-family="'Dialog'" stroke="none" font-weight="bold" xml:space="preserve"> ServiceOrchestration</text>
            <rect x="220" y="140" clip-path="url(#clipPath28)" fill="url(#linearGradient4)" width="20" height="20" stroke="none"/>
            <rect x="221" y="141" clip-path="url(#clipPath29)" fill="none" width="18" rx="0" ry="0" height="18"/>
            <text x="30" font-size="12px" y="163" clip-path="url(#clipPath30)" font-family="'Dialog'" stroke="none" font-weight="bold" xml:space="preserve"> GetPublicKey</text>
            <rect x="220" y="180" clip-path="url(#clipPath31)" fill="url(#linearGradient5)" width="20" height="20" stroke="none"/>
            <rect x="221" y="181" clip-path="url(#clipPath32)" fill="none" width="18" rx="0" ry="0" height="18"/>
            <text x="30" font-size="12px" y="203" clip-path="url(#clipPath33)" font-family="'Dialog'" stroke="none" font-weight="bold" xml:space="preserve"> ConsumerAuthentication</text>
            <rect x="538" y="180" clip-path="url(#clipPath34)" fill="url(#linearGradient6)" width="20" height="20" stroke="none"/>
            <rect x="539" y="181" clip-path="url(#clipPath35)" fill="none" width="18" rx="0" ry="0" height="18"/>
            <text x="563" font-size="12px" y="196" clip-path="url(#clipPath36)" font-family="'Dialog'" stroke="none" font-weight="bold" xml:space="preserve"> SysMonitor</text>
            <rect x="538" y="61" clip-path="url(#clipPath37)" fill="url(#linearGradient7)" width="20" height="20" stroke="none"/>
            <rect x="539" y="62" clip-path="url(#clipPath38)" fill="none" width="18" rx="0" ry="0" height="18"/>
            <text x="563" font-size="12px" y="77" clip-path="url(#clipPath39)" font-family="'Dialog'" stroke="none" font-weight="bold" xml:space="preserve"> Tracking</text>
            <rect x="790" y="10" clip-path="url(#clipPath40)" fill="url(#linearGradient8)" width="281" height="261" stroke="none"/>
            <text x="916" font-size="12px" y="26" clip-path="url(#clipPath41)" font-family="'Dialog'" stroke="none" font-weight="bold" xml:space="preserve">«SD»</text>
            <text x="906" font-size="12px" y="44" clip-path="url(#clipPath42)" font-family="'Dialog'" stroke="none" font-weight="bold" xml:space="preserve">Tracking</text>
            <text x="917" font-size="10px" y="62" clip-path="url(#clipPath43)" font-family="'Dialog'" stroke="none" font-weight="bold" xml:space="preserve">«SD»</text>
            <text x="796" xml:space="preserve" y="82" clip-path="url(#clipPath44)" stroke="none">MicroserviceName=Tracking </text>
            <text x="796" xml:space="preserve" y="100" clip-path="url(#clipPath45)" stroke="none">isEncapsulated=false </text>
            <line y2="50" fill="none" x1="790" clip-path="url(#clipPath46)" x2="1071" y1="50"/>
            <line clip-path="url(#clipPath47)" fill="none" x1="790" x2="1071" y1="49" y2="49" stroke-width="1.1"/>
        </g>
        <g font-size="10px" stroke-width="1.1" font-weight="bold" stroke-linecap="butt">
            <text x="902" xml:space="preserve" y="139" clip-path="url(#clipPath48)" stroke="none">operations</text>
            <text x="796" xml:space="preserve" font-size="12px" y="158" clip-path="url(#clipPath49)" stroke="none">  data_stream()</text>
            <text x="796" xml:space="preserve" font-size="12px" y="175" clip-path="url(#clipPath50)" stroke="none">  set_filter_model()</text>
            <text x="796" xml:space="preserve" font-size="12px" y="192" clip-path="url(#clipPath51)" stroke="none">  filtered_data_stream()</text>
        </g>
        <g font-size="14px" stroke-width="2.1" font-family="'Ubuntu Sans'" stroke-linecap="butt">
            <line y2="127" fill="none" x1="790" clip-path="url(#clipPath52)" x2="1071" y1="127"/>
            <rect x="791" y="11" clip-path="url(#clipPath47)" fill="none" width="279" rx="0" ry="0" height="259"/>
            <rect x="230" y="490" clip-path="url(#clipPath53)" fill="url(#linearGradient9)" width="321" height="440" stroke="none"/>
            <text x="365" font-size="12px" y="506" clip-path="url(#clipPath54)" font-family="'Dialog'" stroke="none" font-weight="bold" xml:space="preserve">«SysDD»</text>
            <text x="293" font-size="12px" y="524" clip-path="url(#clipPath55)" font-family="'Dialog'" stroke="none" font-weight="bold" xml:space="preserve">MovingSensorDesignDescription</text>
            <text x="368" font-size="10px" y="542" clip-path="url(#clipPath56)" font-family="'Dialog'" stroke="none" font-weight="bold" xml:space="preserve">«SysDD»</text>
            <text x="236" xml:space="preserve" y="562" clip-path="url(#clipPath57)" stroke="none">Timeformat=RFC_3339 </text>
            <text x="236" xml:space="preserve" y="580" clip-path="url(#clipPath58)" stroke="none">ArrowheadCertificate=ApplicationSystem </text>
            <text x="236" xml:space="preserve" y="598" clip-path="url(#clipPath59)" stroke="none">MicrosystemName=[] </text>
            <text x="236" xml:space="preserve" y="616" clip-path="url(#clipPath60)" stroke="none">FunctionalProperties=[] </text>
            <text x="236" xml:space="preserve" y="634" clip-path="url(#clipPath61)" stroke="none">SystemDatabase=MySQL </text>
            <text x="236" xml:space="preserve" y="652" clip-path="url(#clipPath62)" stroke="none">MicrosystemBehaviour=[] </text>
            <text x="236" xml:space="preserve" y="670" clip-path="url(#clipPath63)" stroke="none">isEncapsulated=false </text>
            <line y2="530" fill="none" x1="230" clip-path="url(#clipPath64)" x2="551" y1="530"/>
            <line clip-path="url(#clipPath65)" fill="none" x1="230" x2="551" y1="529" y2="529" stroke-width="1.1"/>
        </g>
        <g font-size="10px" stroke-width="1.1" font-weight="bold" stroke-linecap="butt">
            <text x="364" xml:space="preserve" y="727" clip-path="url(#clipPath66)" stroke="none">attributes</text>
            <text x="236" xml:space="preserve" font-size="12px" y="746" clip-path="url(#clipPath67)" stroke="none">«ProxyPort»   ServiceDiscovery-HTTP</text>
            <text x="236" xml:space="preserve" font-size="12px" y="763" clip-path="url(#clipPath68)" stroke="none">«ProxyPort»   ServiceOrchestration-HTTP</text>
            <text x="236" xml:space="preserve" font-size="12px" y="780" clip-path="url(#clipPath69)" stroke="none">«ProxyPort»   GetPublicKey-HTTP</text>
            <text x="236" xml:space="preserve" font-size="12px" y="797" clip-path="url(#clipPath70)" stroke="none">«ProxyPort»   ConsumerAuthentication-HTTP</text>
            <text x="236" xml:space="preserve" font-size="12px" y="814" clip-path="url(#clipPath71)" stroke="none">«ProxyPort»   SysMonitor-MQTT</text>
            <text x="236" xml:space="preserve" font-size="12px" y="831" clip-path="url(#clipPath72)" stroke="none">«ProxyPort»   Tracking-WebSocket</text>
        </g>
        <g font-size="14px" stroke-width="2.1" font-family="'Ubuntu Sans'" stroke-linecap="butt">
            <line y2="715" fill="none" x1="230" clip-path="url(#clipPath73)" x2="551" y1="715"/>
            <text x="362" font-size="10px" y="904" clip-path="url(#clipPath74)" font-family="'Dialog'" stroke="none" font-weight="bold" xml:space="preserve">operations</text>
            <line y2="892" fill="none" x1="230" clip-path="url(#clipPath75)" x2="551" y1="892"/>
            <rect x="231" y="491" clip-path="url(#clipPath65)" fill="none" width="319" rx="0" ry="0" height="438"/>
            <rect x="220" y="540" clip-path="url(#clipPath76)" fill="url(#linearGradient10)" width="20" height="20" stroke="none"/>
            <rect x="221" y="541" clip-path="url(#clipPath77)" fill="none" width="18" rx="0" ry="0" height="18"/>
            <text x="10" font-size="12px" y="563" clip-path="url(#clipPath78)" font-family="'Dialog'" stroke="none" font-weight="bold" xml:space="preserve"> ServiceDiscovery-HTTP</text>
            <rect x="220" y="580" clip-path="url(#clipPath79)" fill="url(#linearGradient11)" width="20" height="20" stroke="none"/>
            <rect x="221" y="581" clip-path="url(#clipPath80)" fill="none" width="18" rx="0" ry="0" height="18"/>
            <text x="10" font-size="12px" y="603" clip-path="url(#clipPath81)" font-family="'Dialog'" stroke="none" font-weight="bold" xml:space="preserve"> ServiceOrchestration-HTTP</text>
            <rect x="220" y="620" clip-path="url(#clipPath82)" fill="url(#linearGradient12)" width="20" height="20" stroke="none"/>
            <rect x="221" y="621" clip-path="url(#clipPath83)" fill="none" width="18" rx="0" ry="0" height="18"/>
            <text x="10" font-size="12px" y="643" clip-path="url(#clipPath84)" font-family="'Dialog'" stroke="none" font-weight="bold" xml:space="preserve"> GetPublicKey-HTTP</text>
            <rect x="220" y="660" clip-path="url(#clipPath85)" fill="url(#linearGradient13)" width="20" height="20" stroke="none"/>
            <rect x="221" y="661" clip-path="url(#clipPath86)" fill="none" width="18" rx="0" ry="0" height="18"/>
            <text x="10" font-size="12px" y="683" clip-path="url(#clipPath87)" font-family="'Dialog'" stroke="none" font-weight="bold" xml:space="preserve"> ConsumerAuthentication-HTTP</text>
            <rect x="541" y="659" clip-path="url(#clipPath88)" fill="url(#linearGradient14)" width="20" height="20" stroke="none"/>
            <rect x="542" y="660" clip-path="url(#clipPath89)" fill="none" width="18" rx="0" ry="0" height="18"/>
            <text x="566" font-size="12px" y="675" clip-path="url(#clipPath90)" font-family="'Dialog'" stroke="none" font-weight="bold" xml:space="preserve"> SysMonitor-MQTT</text>
            <rect x="541" y="538" clip-path="url(#clipPath91)" fill="url(#linearGradient15)" width="20" height="20" stroke="none"/>
            <rect x="542" y="539" clip-path="url(#clipPath92)" fill="none" width="18" rx="0" ry="0" height="18"/>
            <text x="566" font-size="12px" y="554" clip-path="url(#clipPath93)" font-family="'Dialog'" stroke="none" font-weight="bold" xml:space="preserve"> Tracking-WebSocket</text>
            <rect x="790" y="490" clip-path="url(#clipPath94)" fill="url(#linearGradient16)" width="281" height="441" stroke="none"/>
            <text x="913" font-size="12px" y="506" clip-path="url(#clipPath95)" font-family="'Dialog'" stroke="none" font-weight="bold" xml:space="preserve">«IDD»</text>
            <text x="871" font-size="12px" y="524" clip-path="url(#clipPath96)" font-family="'Dialog'" stroke="none" font-weight="bold" xml:space="preserve">Tracking-WebSocket</text>
            <text x="914" font-size="10px" y="542" clip-path="url(#clipPath97)" font-family="'Dialog'" stroke="none" font-weight="bold" xml:space="preserve">«IDD»</text>
            <text x="796" xml:space="preserve" y="562" clip-path="url(#clipPath98)" stroke="none">Port=0 </text>
            <text x="796" xml:space="preserve" y="580" clip-path="url(#clipPath99)" stroke="none">Protocol=websocket </text>
            <text x="796" xml:space="preserve" y="598" clip-path="url(#clipPath100)" stroke="none">Encoding=JSON </text>
            <text x="796" xml:space="preserve" y="616" clip-path="url(#clipPath101)" stroke="none">Security=CERTIFICATE </text>
            <text x="796" xml:space="preserve" y="634" clip-path="url(#clipPath102)" stroke="none">Compression=NONE </text>
            <text x="796" xml:space="preserve" y="652" clip-path="url(#clipPath103)" stroke="none">Certificate_level=ApplicationSystem </text>
            <text x="796" xml:space="preserve" y="670" clip-path="url(#clipPath104)" stroke="none">Token=ArrowheadToken </text>
            <text x="796" xml:space="preserve" y="688" clip-path="url(#clipPath105)" stroke="none">Crypto_algorithm=RSA </text>
            <text x="796" xml:space="preserve" y="706" clip-path="url(#clipPath106)" stroke="none">Datamodel=NONE </text>
            <text x="796" xml:space="preserve" y="724" clip-path="url(#clipPath107)" stroke="none">MicroserviceName=Tracking </text>
            <text x="796" xml:space="preserve" y="742" clip-path="url(#clipPath108)" stroke="none">isEncapsulated=false </text>
            <line y2="530" fill="none" x1="790" clip-path="url(#clipPath109)" x2="1071" y1="530"/>
            <line clip-path="url(#clipPath110)" fill="none" x1="790" x2="1071" y1="529" y2="529" stroke-width="1.1"/>
        </g>
        <g font-size="10px" stroke-width="1.1" font-weight="bold" stroke-linecap="butt">
            <text x="902" xml:space="preserve" y="799" clip-path="url(#clipPath111)" stroke="none">operations</text>
            <text x="796" xml:space="preserve" font-size="12px" y="818" clip-path="url(#clipPath112)" stroke="none">  data_stream()</text>
            <text x="796" xml:space="preserve" font-size="12px" y="835" clip-path="url(#clipPath113)" stroke="none">  set_filter_model()</text>
            <text x="796" xml:space="preserve" font-size="12px" y="852" clip-path="url(#clipPath114)" stroke="none">  filtered_data_stream()</text>
        </g>
        <g font-size="14px" stroke-width="2.1" font-family="'Ubuntu Sans'" stroke-linecap="butt">
            <line y2="787" fill="none" x1="790" clip-path="url(#clipPath115)" x2="1071" y1="787"/>
            <rect x="791" y="491" clip-path="url(#clipPath110)" fill="none" width="279" rx="0" ry="0" height="439"/>
        </g>
        <g text-rendering="optimizeLegibility" stroke-width="2.1" font-weight="bold" stroke-linecap="butt">
            <line y2="386" fill="none" x1="390" clip-path="url(#clipPath116)" x2="390" y1="490"/>
            <polygon fill="white" clip-path="url(#clipPath117)" points=" 390 386 398 396 382 396" stroke="none"/>
            <polygon fill="none" stroke-width="1.1" clip-path="url(#clipPath117)" points=" 390 386 398 396 382 396"/>
            <line y2="271" fill="none" x1="930" clip-path="url(#clipPath116)" x2="930" y1="490"/>
            <polygon fill="white" clip-path="url(#clipPath118)" points=" 930 271 938 281 922 281" stroke="none"/>
            <polygon fill="none" stroke-width="1.1" clip-path="url(#clipPath118)" points=" 930 271 938 281 922 281"/>
        </g>
    </g>
</svg>
